<svg width="40" height="40" viewBox="0 0 40 40" fill="none" xmlns="http://www.w3.org/2000/svg">
<rect width="40" height="40" rx="20" fill="#FC5C2C"/>
<path d="M16.9647 29.6094C16.9647 29.8251 16.7898 30 16.574 30H10.3906C10.1749 30 10 29.8251 10 29.6094V23.426C10 23.2102 10.1749 23.0353 10.3906 23.0353C10.6064 23.0353 10.7813 23.2102 10.7813 23.426V29.2187H16.574C16.7898 29.2187 16.9647 29.3936 16.9647 29.6094ZM29.6094 23.0353C29.3936 23.0353 29.2187 23.2102 29.2187 23.426V29.2187H23.426C23.2102 29.2187 23.0353 29.3936 23.0353 29.6094C23.0353 29.8251 23.2102 30 23.426 30H29.6094C29.8251 30 30 29.8251 30 29.6094V23.426C29.9998 23.2102 29.8251 23.0353 29.6094 23.0353ZM29.6094 10.0002H23.426C23.2102 10.0002 23.0353 10.1751 23.0353 10.3909C23.0353 10.6066 23.2102 10.7815 23.426 10.7815H29.2187V16.5742C29.2187 16.79 29.3936 16.9649 29.6094 16.9649C29.8251 16.9649 30 16.79 30 16.5742V10.3906C29.9998 10.1749 29.8251 10.0002 29.6094 10.0002ZM10.3906 16.9647C10.6064 16.9647 10.7813 16.7898 10.7813 16.574V10.7813H16.574C16.7898 10.7813 16.9647 10.6064 16.9647 10.3906C16.9647 10.1749 16.7898 10 16.574 10H10.3906C10.1749 10 10 10.1749 10 10.3906V16.574C10.0002 16.7898 10.1749 16.9647 10.3906 16.9647ZM13.2813 16.251V23.749C13.2813 23.9648 13.4562 24.1397 13.6719 24.1397C13.8877 24.1397 14.0626 23.9648 14.0626 23.749V16.251C14.0626 16.0352 13.8877 15.8603 13.6719 15.8603C13.4562 15.8603 13.2813 16.0352 13.2813 16.251ZM14.4787 16.251V23.749C14.4787 23.9648 14.6536 24.1397 14.8694 24.1397C15.0851 24.1397 15.26 23.9648 15.26 23.749V16.251C15.26 16.0352 15.0851 15.8603 14.8694 15.8603C14.6536 15.8603 14.4787 16.0352 14.4787 16.251ZM16.9157 15.8603C16.6999 15.8603 16.525 16.0352 16.525 16.251V23.749C16.525 23.9648 16.6999 24.1397 16.9157 24.1397C17.1314 24.1397 17.3063 23.9648 17.3063 23.749V16.251C17.3063 16.0352 17.1314 15.8603 16.9157 15.8603ZM19.8411 15.8603C19.6253 15.8603 19.4504 16.0352 19.4504 16.251V23.749C19.4504 23.9648 19.6253 24.1397 19.8411 24.1397C20.0568 24.1397 20.2317 23.9648 20.2317 23.749V16.251C20.2317 16.0352 20.0568 15.8603 19.8411 15.8603ZM21.2762 15.8603C21.0605 15.8603 20.8856 16.0352 20.8856 16.251V23.749C20.8856 23.9648 21.0605 24.1397 21.2762 24.1397C21.492 24.1397 21.6669 23.9648 21.6669 23.749V16.251C21.6669 16.0352 21.492 15.8603 21.2762 15.8603ZM24.8575 23.749V16.251C24.8575 16.0352 24.6826 15.8603 24.4668 15.8603C24.2511 15.8603 24.0762 16.0352 24.0762 16.251V23.749C24.0762 23.9648 24.2511 24.1397 24.4668 24.1397C24.6826 24.1397 24.8575 23.9648 24.8575 23.749ZM26.7187 23.749V16.251C26.7187 16.0352 26.5438 15.8603 26.3281 15.8603C26.1123 15.8603 25.9374 16.0352 25.9374 16.251V23.749C25.9374 23.9648 26.1123 24.1397 26.3281 24.1397C26.5438 24.1397 26.7187 23.9648 26.7187 23.749ZM23.2275 23.749V16.251C23.2275 16.0352 23.0526 15.8603 22.8369 15.8603C22.6211 15.8603 22.4462 16.0352 22.4462 16.251V23.749C22.4462 23.9648 22.6211 24.1397 22.8369 24.1397C23.0526 24.1397 23.2275 23.9648 23.2275 23.749Z" fill="white"/>
</svg>
