<svg width="40" height="40" viewBox="0 0 40 40" fill="none" xmlns="http://www.w3.org/2000/svg">
<rect width="40" height="40" rx="20" fill="#FC5C2C"/>
<path d="M27.4909 14.9037H24.8996L24.6487 13.9001C24.5129 13.3574 24.1997 12.8756 23.7587 12.5313C23.3177 12.1871 22.7743 12.0001 22.2149 12H17.7851C17.2257 12.0001 16.6823 12.1871 16.2413 12.5313C15.8003 12.8756 15.4871 13.3574 15.3513 13.9001L15.1004 14.9037H12.5091C11.8437 14.9037 11.2055 15.1681 10.7349 15.6386C10.2644 16.1092 10 16.7474 10 17.4129V26.4662C10 27.1317 10.2644 27.7699 10.7349 28.2405C11.2055 28.711 11.8437 28.9754 12.5091 28.9754H27.4909C28.1563 28.9754 28.7945 28.711 29.2651 28.2405C29.7356 27.7699 30 27.1317 30 26.4662V17.4129C30 16.7474 29.7356 16.1092 29.2651 15.6386C28.7945 15.1681 28.1563 14.9037 27.4909 14.9037ZM28.6314 26.4662C28.6314 26.616 28.6019 26.7643 28.5446 26.9027C28.4873 27.0411 28.4032 27.1668 28.2973 27.2727C28.1914 27.3786 28.0657 27.4626 27.9273 27.5199C27.789 27.5773 27.6406 27.6068 27.4909 27.6068H12.5091C12.3594 27.6068 12.211 27.5773 12.0727 27.5199C11.9343 27.4626 11.8086 27.3786 11.7027 27.2727C11.5968 27.1668 11.5127 27.0411 11.4554 26.9027C11.3981 26.7643 11.3686 26.616 11.3686 26.4662V17.4129C11.3686 17.1104 11.4888 16.8203 11.7027 16.6064C11.9165 16.3925 12.2066 16.2724 12.5091 16.2724H15.6341C15.7866 16.2724 15.9348 16.2214 16.0551 16.1276C16.1753 16.0338 16.2608 15.9025 16.2979 15.7546L16.6788 14.2331C16.7408 13.9867 16.8833 13.768 17.0838 13.6118C17.2842 13.4556 17.531 13.3708 17.7851 13.3709H22.2149C22.469 13.3708 22.7158 13.4556 22.9162 13.6118C23.1167 13.768 23.2592 13.9867 23.3212 14.2331L23.7021 15.7546C23.7392 15.9025 23.8247 16.0338 23.9449 16.1276C24.0652 16.2214 24.2134 16.2724 24.3659 16.2724H27.4909C27.7934 16.2724 28.0835 16.3925 28.2973 16.6064C28.5112 16.8203 28.6314 17.1104 28.6314 17.4129V26.4662Z" fill="white"/>
<path d="M20 16.4297C19.0075 16.4297 18.0373 16.724 17.212 17.2754C16.3868 17.8268 15.7436 18.6106 15.3638 19.5275C14.9839 20.4445 14.8846 21.4535 15.0782 22.4269C15.2718 23.4004 15.7498 24.2946 16.4516 24.9964C17.1534 25.6982 18.0476 26.1761 19.021 26.3698C19.9945 26.5634 21.0035 26.464 21.9204 26.0842C22.8374 25.7044 23.6211 25.0612 24.1725 24.2359C24.724 23.4107 25.0183 22.4405 25.0183 21.4479C25.0141 20.1183 24.484 18.8443 23.5438 17.9041C22.6036 16.964 21.3296 16.4339 20 16.4297ZM20 25.1181C19.2782 25.1181 18.5726 24.9041 17.9724 24.503C17.3722 24.102 16.9044 23.532 16.6282 22.8651C16.352 22.1982 16.2797 21.4644 16.4205 20.7565C16.5613 20.0485 16.9089 19.3982 17.4193 18.8878C17.9297 18.3774 18.5801 18.0298 19.288 17.889C19.996 17.7481 20.7298 17.8204 21.3967 18.0966C22.0636 18.3729 22.6336 18.8407 23.0346 19.4408C23.4356 20.041 23.6497 20.7466 23.6497 21.4685C23.6461 22.4353 23.2604 23.3615 22.5767 24.0452C21.8931 24.7288 20.9669 25.1145 20 25.1181Z" fill="white"/>
</svg>
