<svg width="52" height="52" viewBox="0 0 52 52" fill="none" xmlns="http://www.w3.org/2000/svg">
<rect x="0.375" y="0.375" width="50.75" height="50.75" rx="25.375" stroke="#FC5C2C" stroke-width="0.75"/>
<circle cx="25.75" cy="25.75" r="22.5" fill="#ECF7F0"/>
<path d="M23.3651 35.25H23.1978C22.8352 35.2246 22.4806 35.1232 22.1598 34.9516C21.8411 34.778 21.5621 34.542 21.345 34.2534L14.2385 24.816C13.8441 24.2894 13.6787 23.6341 13.7783 22.9886C13.876 22.345 14.2326 21.7638 14.7665 21.3757C15.3044 20.9896 15.9738 20.8277 16.6313 20.9252C17.2907 21.0208 17.8844 21.3679 18.2809 21.8906L23.6162 28.9779C23.6182 28.9799 23.6182 28.9799 23.6202 28.9799C23.6221 28.9818 23.6221 28.9818 23.6241 28.9818C23.6261 28.9818 23.6261 28.9818 23.6281 28.9818C23.6301 28.9799 23.6301 28.9799 23.6301 28.9779L35.4284 17.0013C35.8906 16.5332 36.5261 16.2621 37.1915 16.2504C37.8569 16.2387 38.5024 16.4864 38.9826 16.9388C39.4607 17.3913 39.7376 18.0134 39.7496 18.6648C39.7615 19.3182 39.5085 19.9481 39.0463 20.4162L25.1681 34.5069C24.9331 34.741 24.6541 34.9282 24.3434 35.055C24.0345 35.1837 23.7018 35.25 23.3651 35.25Z" fill="#FC5C2C"/>
</svg>
