<svg width="338" height="64" viewBox="0 0 338 64" fill="none" xmlns="http://www.w3.org/2000/svg">
<path d="M1 17H337" stroke="#ECECEC" stroke-width="2" stroke-linecap="round"/>
<path fill-rule="evenodd" clip-rule="evenodd" d="M1 17H16H1Z" fill="#FC5C2C"/>
<path d="M1 17H16" stroke="#FC5C2C" stroke-width="2" stroke-linecap="round"/>
<circle cx="30.0657" cy="17.5" r="6" fill="#FC5C2C" stroke="#FC5C2C"/>
<circle cx="27.5" cy="15.5" r="15" fill="#FC5C2C" stroke="#FC5C2C"/>
<path d="M34.8917 11.6C34.8017 11.3605 34.6594 11.1441 34.475 10.9667L32.9917 8.74167C32.8397 8.51394 32.634 8.32715 32.3928 8.19779C32.1515 8.06844 31.8821 8.00051 31.6083 8H23.3917C23.1179 8.00051 22.8485 8.06844 22.6072 8.19779C22.366 8.32715 22.1603 8.51394 22.0083 8.74167L20.525 10.9583C20.36 11.1135 20.2283 11.3007 20.138 11.5084C20.0478 11.7162 20.0008 11.9402 20 12.1667V21.3333C20 21.7754 20.1756 22.1993 20.4882 22.5118C20.8007 22.8244 21.2246 23 21.6667 23H33.3333C33.7754 23 34.1993 22.8244 34.5118 22.5118C34.8244 22.1993 35 21.7754 35 21.3333V12.1667C34.9987 11.9728 34.962 11.7807 34.8917 11.6ZM30.8333 19.225C30.9504 19.3422 31.0161 19.501 31.0161 19.6667C31.0161 19.8323 30.9504 19.9911 30.8333 20.1083C30.7161 20.2254 30.5573 20.2911 30.3917 20.2911C30.226 20.2911 30.0672 20.2254 29.95 20.1083L27.45 17.6083L24.95 20.1083C24.8328 20.2254 24.674 20.2911 24.5083 20.2911C24.3427 20.2911 24.1839 20.2254 24.0667 20.1083C23.9496 19.9911 23.8839 19.8323 23.8839 19.6667C23.8839 19.501 23.9496 19.3422 24.0667 19.225L26.5667 16.725L24.0667 14.225C23.9562 14.1012 23.8993 13.9386 23.9087 13.773C23.9181 13.6073 23.9929 13.4522 24.1167 13.3417C24.2404 13.2312 24.403 13.1743 24.5687 13.1837C24.7343 13.1931 24.8895 13.2679 25 13.3917L27.5 15.8917L30 13.3917C30.1217 13.3225 30.2631 13.2961 30.4015 13.3169C30.54 13.3376 30.6675 13.4043 30.7635 13.5061C30.8596 13.6079 30.9187 13.7391 30.9314 13.8785C30.944 14.0179 30.9095 14.1575 30.8333 14.275L28.3333 16.775L30.8333 19.225Z" fill="white"/>
<circle cx="300.5" cy="16.5" r="6.5" fill="#E8E8E8"/>
<circle cx="169.5" cy="16.5" r="6.5" fill="#E8E8E8"/>
<path d="M9.27 48H6.218V37.976H9.242C12.266 37.976 14.282 39.992 14.282 42.988C14.282 45.984 12.28 48 9.27 48ZM9.2 38.9H7.226V47.076H9.228C11.678 47.076 13.246 45.48 13.246 42.988C13.246 40.482 11.678 38.9 9.2 38.9ZM18.9348 48.168C16.9468 48.168 15.6168 46.74 15.6168 44.612C15.6168 42.498 16.9328 41.042 18.8648 41.042C20.6988 41.042 21.9448 42.344 21.9448 44.262V44.738H16.5548C16.6248 46.39 17.4928 47.342 18.9488 47.342C20.0548 47.342 20.7688 46.866 21.0208 45.97H21.9448C21.5808 47.398 20.5308 48.168 18.9348 48.168ZM18.8648 41.868C17.5908 41.868 16.7508 42.708 16.5828 44.038H20.9788C20.9788 42.736 20.1388 41.868 18.8648 41.868ZM23.2132 44.626C23.2132 42.498 24.5152 41.042 26.4892 41.042C28.0572 41.042 29.2052 41.952 29.4712 43.352H28.5052C28.2533 42.414 27.4412 41.896 26.5032 41.896C25.1312 41.896 24.1652 42.946 24.1652 44.612C24.1652 46.222 25.0612 47.3 26.4332 47.3C27.4412 47.3 28.2533 46.74 28.5192 45.872H29.4992C29.1772 47.258 27.9732 48.168 26.4332 48.168C24.5152 48.168 23.2132 46.754 23.2132 44.626ZM32.1707 48H31.2047V37.794H32.1707V48ZM34.9012 39.362C34.5092 39.362 34.1872 39.04 34.1872 38.648C34.1872 38.256 34.5092 37.92 34.9012 37.92C35.2932 37.92 35.6292 38.256 35.6292 38.648C35.6292 39.04 35.2932 39.362 34.9012 39.362ZM34.4252 48V41.224H35.3912V48H34.4252ZM38.5717 48H37.6057V41.224H38.4457L38.5857 42.4C39.0337 41.532 39.9297 41.042 40.9097 41.042C42.7717 41.042 43.5417 42.148 43.5417 43.856V48H42.5757V44.066C42.5757 42.484 41.8617 41.924 40.7417 41.924C39.3557 41.924 38.5717 42.932 38.5717 44.458V48ZM48.509 48.168C46.521 48.168 45.191 46.74 45.191 44.612C45.191 42.498 46.507 41.042 48.439 41.042C50.273 41.042 51.519 42.344 51.519 44.262V44.738H46.129C46.199 46.39 47.067 47.342 48.523 47.342C49.629 47.342 50.343 46.866 50.595 45.97H51.519C51.155 47.398 50.105 48.168 48.509 48.168ZM48.439 41.868C47.165 41.868 46.325 42.708 46.157 44.038H50.553C50.553 42.736 49.713 41.868 48.439 41.868Z" fill="#FC5C2C"/>
<path d="M134.77 48H131.718V37.976H134.742C137.766 37.976 139.782 39.992 139.782 42.988C139.782 45.984 137.78 48 134.77 48ZM134.7 38.9H132.726V47.076H134.728C137.178 47.076 138.746 45.48 138.746 42.988C138.746 40.482 137.178 38.9 134.7 38.9ZM142.069 39.362C141.677 39.362 141.355 39.04 141.355 38.648C141.355 38.256 141.677 37.92 142.069 37.92C142.461 37.92 142.797 38.256 142.797 38.648C142.797 39.04 142.461 39.362 142.069 39.362ZM141.593 48V41.224H142.559V48H141.593ZM144.199 46.096H145.123C145.123 46.88 145.711 47.37 146.663 47.37C147.713 47.37 148.329 46.922 148.329 46.194C148.329 45.634 148.049 45.312 147.251 45.116L146.089 44.822C144.913 44.528 144.339 43.912 144.339 42.988C144.339 41.798 145.333 41.042 146.789 41.042C148.217 41.042 149.141 41.826 149.183 43.086H148.245C148.217 42.302 147.671 41.84 146.761 41.84C145.809 41.84 145.277 42.246 145.277 42.974C145.277 43.492 145.641 43.856 146.383 44.038L147.545 44.332C148.721 44.626 149.253 45.172 149.253 46.152C149.253 47.37 148.217 48.168 146.677 48.168C145.151 48.168 144.199 47.356 144.199 46.096ZM151.044 50.954V41.224H151.884L151.982 42.596C152.458 41.546 153.41 41.042 154.544 41.042C156.504 41.042 157.68 42.54 157.68 44.584C157.68 46.628 156.546 48.168 154.544 48.168C153.396 48.168 152.486 47.678 152.01 46.698V50.954H151.044ZM152.024 44.612C152.024 46.166 152.892 47.3 154.376 47.3C155.846 47.3 156.7 46.166 156.7 44.612C156.7 43.044 155.846 41.924 154.376 41.924C152.892 41.924 152.024 43.044 152.024 44.612ZM161.365 48.168C159.923 48.168 159.069 47.356 159.069 46.166C159.069 44.92 160.021 44.136 161.603 44.01L163.843 43.828V43.604C163.843 42.274 163.045 41.854 162.051 41.854C160.875 41.854 160.175 42.386 160.175 43.296H159.293C159.293 41.924 160.413 41.042 162.079 41.042C163.647 41.042 164.795 41.826 164.795 43.618V48H163.983L163.857 46.81C163.437 47.664 162.513 48.168 161.365 48.168ZM161.589 47.384C163.017 47.384 163.843 46.39 163.843 44.92V44.556L161.841 44.71C160.567 44.822 160.049 45.382 160.049 46.138C160.049 46.964 160.665 47.384 161.589 47.384ZM168.365 48H167.413V42.036H166.055V41.224H167.413V39.082H168.365V41.224H169.723V42.036H168.365V48ZM170.636 44.626C170.636 42.498 171.938 41.042 173.912 41.042C175.48 41.042 176.628 41.952 176.894 43.352H175.928C175.676 42.414 174.864 41.896 173.926 41.896C172.554 41.896 171.588 42.946 171.588 44.612C171.588 46.222 172.484 47.3 173.856 47.3C174.864 47.3 175.676 46.74 175.942 45.872H176.922C176.6 47.258 175.396 48.168 173.856 48.168C171.938 48.168 170.636 46.754 170.636 44.626ZM179.552 47.986H178.586V37.794H179.552V42.4C179.986 41.588 180.812 41.042 181.946 41.042C183.724 41.042 184.522 42.148 184.522 43.856V48H183.556V44.066C183.556 42.484 182.814 41.924 181.764 41.924C180.308 41.924 179.552 43.002 179.552 44.304V47.986ZM187.123 39.362C186.731 39.362 186.409 39.04 186.409 38.648C186.409 38.256 186.731 37.92 187.123 37.92C187.515 37.92 187.851 38.256 187.851 38.648C187.851 39.04 187.515 39.362 187.123 39.362ZM186.647 48V41.224H187.613V48H186.647ZM190.794 48H189.828V41.224H190.668L190.808 42.4C191.256 41.532 192.152 41.042 193.132 41.042C194.994 41.042 195.764 42.148 195.764 43.856V48H194.798V44.066C194.798 42.484 194.084 41.924 192.964 41.924C191.578 41.924 190.794 42.932 190.794 44.458V48ZM197.427 44.416C197.427 42.568 198.617 41.042 200.605 41.042C201.781 41.042 202.677 41.588 203.111 42.582L203.209 41.224H204.049V47.79C204.049 49.806 202.761 51.122 200.773 51.122C199.037 51.122 197.819 50.142 197.553 48.504H198.519C198.729 49.596 199.569 50.24 200.787 50.24C202.173 50.24 203.097 49.302 203.097 47.888V46.278C202.635 47.23 201.697 47.79 200.535 47.79C198.603 47.79 197.427 46.264 197.427 44.416ZM198.393 44.402C198.393 45.788 199.247 46.922 200.675 46.922C202.145 46.922 203.013 45.858 203.013 44.402C203.013 42.96 202.173 41.896 200.689 41.896C199.233 41.896 198.393 43.03 198.393 44.402Z" fill="#6B7280"/>
<path d="M272.15 42.988C272.15 46.026 270.176 48.168 267.376 48.168C264.562 48.168 262.602 46.026 262.602 42.988C262.602 39.95 264.576 37.794 267.376 37.794C270.19 37.794 272.15 39.936 272.15 42.988ZM271.114 42.988C271.114 40.482 269.588 38.774 267.376 38.774C265.164 38.774 263.652 40.482 263.652 42.988C263.652 45.494 265.164 47.202 267.376 47.202C269.588 47.202 271.114 45.48 271.114 42.988ZM274.934 48H273.968V41.224H274.808L274.948 42.4C275.396 41.532 276.292 41.042 277.272 41.042C279.134 41.042 279.904 42.148 279.904 43.856V48H278.938V44.066C278.938 42.484 278.224 41.924 277.104 41.924C275.718 41.924 274.934 42.932 274.934 44.458V48ZM287.666 48H286.714V42.036H285.356V41.224H286.714V39.082H287.666V41.224H289.024V42.036H287.666V48ZM291.448 47.986H290.482V37.794H291.448V42.4C291.882 41.588 292.708 41.042 293.842 41.042C295.62 41.042 296.418 42.148 296.418 43.856V48H295.452V44.066C295.452 42.484 294.71 41.924 293.66 41.924C292.204 41.924 291.448 43.002 291.448 44.304V47.986ZM301.385 48.168C299.397 48.168 298.067 46.74 298.067 44.612C298.067 42.498 299.383 41.042 301.315 41.042C303.149 41.042 304.395 42.344 304.395 44.262V44.738H299.005C299.075 46.39 299.943 47.342 301.399 47.342C302.505 47.342 303.219 46.866 303.471 45.97H304.395C304.031 47.398 302.981 48.168 301.385 48.168ZM301.315 41.868C300.041 41.868 299.201 42.708 299.033 44.038H303.429C303.429 42.736 302.589 41.868 301.315 41.868ZM312.406 48L309.424 37.976H310.474L312.504 44.864C312.644 45.354 312.77 45.858 312.896 46.516C313.064 45.788 313.204 45.354 313.358 44.864L315.542 37.976H316.592L318.776 44.864C318.93 45.368 319.07 45.872 319.224 46.516C319.378 45.746 319.504 45.256 319.616 44.878L321.688 37.976H322.71L319.7 48H318.748L316.06 39.488L313.372 48H312.406ZM325.165 48.168C323.723 48.168 322.869 47.356 322.869 46.166C322.869 44.92 323.821 44.136 325.403 44.01L327.643 43.828V43.604C327.643 42.274 326.845 41.854 325.851 41.854C324.675 41.854 323.975 42.386 323.975 43.296H323.093C323.093 41.924 324.213 41.042 325.879 41.042C327.447 41.042 328.595 41.826 328.595 43.618V48H327.783L327.657 46.81C327.237 47.664 326.313 48.168 325.165 48.168ZM325.389 47.384C326.817 47.384 327.643 46.39 327.643 44.92V44.556L325.641 44.71C324.367 44.822 323.849 45.382 323.849 46.138C323.849 46.964 324.465 47.384 325.389 47.384ZM329.897 50.954V50.156H330.639C331.227 50.156 331.815 50.114 332.151 49.204L332.445 48.406L329.701 41.224H330.723L332.907 47.132L335.049 41.224H336.043L332.935 49.554C332.543 50.618 331.885 51.052 330.919 51.052C330.513 51.052 330.205 51.024 329.897 50.954Z" fill="#6B7280"/>
</svg>
