<svg width="338" height="52" viewBox="0 0 338 52" fill="none" xmlns="http://www.w3.org/2000/svg">
<path d="M1 17H337" stroke="#ECECEC" stroke-width="2" stroke-linecap="round"/>
<path fill-rule="evenodd" clip-rule="evenodd" d="M1 17H160H1Z" fill="#FC5C2C"/>
<path d="M1 17H160" stroke="#FC5C2C" stroke-width="2" stroke-linecap="round"/>
<circle cx="30.0657" cy="17.5" r="6" fill="#FC5C2C" stroke="#FC5C2C"/>
<circle cx="169" cy="15.5" r="15" fill="#FC5C2C" stroke="#FC5C2C"/>
<path fill-rule="evenodd" clip-rule="evenodd" d="M175.69 22C176.182 22 176.628 21.8076 176.951 21.4973C177.273 21.1872 177.472 20.7573 177.472 20.2833C177.472 19.8094 177.273 19.3805 176.951 19.0693C176.629 18.7592 176.182 18.5667 175.69 18.5667C175.198 18.5667 174.753 18.7591 174.43 19.0693C174.239 19.2532 174.091 19.4782 174.003 19.73L174.002 19.7319C173.941 19.9052 173.908 20.0899 173.908 20.2824C173.908 20.7563 174.108 21.1852 174.43 21.4964C174.752 21.8075 175.198 22 175.69 22ZM176.423 20.989C176.235 21.1699 175.977 21.281 175.69 21.281C175.404 21.281 175.145 21.169 174.958 20.989C174.77 20.808 174.655 20.5591 174.655 20.2833C174.655 20.0076 174.771 19.7587 174.958 19.5777C175.146 19.3968 175.404 19.2857 175.69 19.2857C175.977 19.2857 176.235 19.3977 176.423 19.5777C176.611 19.7587 176.726 20.0076 176.726 20.2833C176.726 20.5591 176.611 20.809 176.423 20.989ZM175.69 20.8396C175.53 20.8396 175.386 20.7774 175.282 20.6768C175.177 20.5763 175.113 20.4365 175.113 20.2833C175.113 20.1292 175.177 19.9904 175.282 19.8898C175.386 19.7893 175.531 19.7271 175.69 19.7271C175.85 19.7271 175.994 19.7893 176.099 19.8898C176.203 19.9904 176.268 20.1301 176.268 20.2833C176.268 20.4375 176.203 20.5763 176.099 20.6768C175.994 20.7774 175.849 20.8396 175.69 20.8396ZM167.985 20.989C167.797 21.1699 167.538 21.281 167.252 21.281C166.966 21.281 166.707 21.169 166.52 20.989C166.332 20.808 166.216 20.5591 166.216 20.2833C166.216 20.0076 166.333 19.7587 166.52 19.5777C166.707 19.3968 166.966 19.2857 167.252 19.2857C167.538 19.2857 167.798 19.3977 167.985 19.5777C168.172 19.7587 168.288 20.0076 168.288 20.2833C168.288 20.5591 168.171 20.809 167.985 20.989ZM167.252 20.8396C167.412 20.8396 167.556 20.7774 167.661 20.6768C167.765 20.5763 167.83 20.4365 167.83 20.2833C167.83 20.1292 167.765 19.9904 167.661 19.8898C167.556 19.7893 167.411 19.7271 167.252 19.7271C167.092 19.7271 166.948 19.7893 166.844 19.8898C166.739 19.9904 166.675 20.1301 166.675 20.2833C166.675 20.4375 166.739 20.5763 166.844 20.6768C166.948 20.7774 167.092 20.8396 167.252 20.8396ZM162.342 9.00009V10.4286H163.029V9.00009H162.342ZM160.5 12.0599V11.5956H162.205C162.331 11.5956 162.435 11.497 162.435 11.3744C162.435 11.2528 162.332 11.1532 162.205 11.1532H160.5V9H161.884V10.6487C161.884 10.7703 161.986 10.8698 162.114 10.8698H163.259C163.385 10.8698 163.488 10.7712 163.488 10.6487V9H164.872V13.026H160.5V12.5013H161.661C161.788 12.5013 161.891 12.4027 161.891 12.2802C161.891 12.1586 161.789 12.059 161.661 12.059L160.5 12.0599ZM162.255 16.9102H163.049C163.175 16.9102 163.278 17.0088 163.278 17.1313C163.278 17.2529 163.176 17.3525 163.049 17.3525H162.255V19.4387H165.19C165.303 19.1821 165.466 18.9514 165.668 18.757C166.073 18.3664 166.633 18.1252 167.252 18.1252C167.87 18.1252 168.431 18.3664 168.836 18.757C169.038 18.9514 169.201 19.1821 169.314 19.4387H172.208V10.71L165.345 10.709C165.34 10.709 165.334 10.709 165.329 10.7081V13.2453C165.329 13.3669 165.226 13.4665 165.099 13.4665H162.253V16.0038H163.73C163.857 16.0038 163.96 16.1024 163.96 16.2249C163.96 16.3465 163.858 16.4461 163.73 16.4461H162.253L162.255 16.9102ZM179.499 18.0045V17.1715H178.471C178.465 17.1715 178.46 17.1735 178.457 17.1763C178.453 17.1802 178.451 17.184 178.451 17.1897V17.9854C178.451 17.9901 178.453 17.9949 178.457 17.9988C178.461 18.0026 178.465 18.0045 178.471 18.0045L179.499 18.0045ZM173.843 14.8861H179.287L177.203 12.0312C177.139 11.9441 177.061 11.877 176.972 11.833C176.884 11.789 176.781 11.765 176.67 11.765L173.843 11.766L173.843 14.8861ZM173.489 19.88H169.453C169.478 20.0102 169.491 20.1452 169.491 20.2831C169.491 20.5157 169.454 20.7398 169.382 20.9504H173.558C173.488 20.7407 173.449 20.5167 173.449 20.2831C173.45 20.1452 173.463 20.0111 173.489 19.88ZM177.753 19.4386C177.639 19.182 177.476 18.9513 177.275 18.7569C176.869 18.3663 176.31 18.1251 175.69 18.1251C175.072 18.1251 174.512 18.3663 174.106 18.7569C173.904 18.9513 173.741 19.182 173.628 19.4386H172.666V12.1518C172.666 12.0455 172.711 11.9498 172.784 11.8799C172.857 11.81 172.957 11.766 173.066 11.766H173.383V15.1074C173.383 15.229 173.486 15.3286 173.613 15.3286H179.499V16.7302H178.471C178.34 16.7302 178.221 16.782 178.134 16.8652C178.048 16.9485 177.994 17.0634 177.994 17.1908V17.9864C177.994 18.1128 178.048 18.2286 178.134 18.3119C178.221 18.3952 178.34 18.4469 178.472 18.4469H179.5L179.499 19.4388L177.753 19.4386ZM177.821 20.9504H179.29C179.348 20.9504 179.4 20.9274 179.437 20.891C179.475 20.8546 179.499 20.8039 179.499 20.7493V19.88H177.892C177.918 20.0102 177.931 20.1452 177.931 20.2831C177.931 20.5157 177.892 20.7398 177.821 20.9504ZM162.246 19.88V20.7493C162.246 20.8039 162.27 20.8547 162.307 20.891C162.345 20.9274 162.398 20.9504 162.455 20.9504H165.12C165.05 20.7407 165.011 20.5167 165.011 20.2831C165.011 20.1452 165.025 20.0111 165.05 19.88L162.246 19.88ZM167.252 21.9997C167.744 21.9997 168.189 21.8073 168.512 21.4971C168.834 21.1869 169.034 20.757 169.034 20.2831C169.034 19.8091 168.834 19.3802 168.512 19.0691C168.19 18.7589 167.744 18.5664 167.252 18.5664C166.76 18.5664 166.315 18.7589 165.992 19.0691C165.67 19.3793 165.47 19.8091 165.47 20.2831C165.47 20.757 165.67 21.1859 165.992 21.4971C166.314 21.8073 166.759 21.9997 167.252 21.9997ZM173.613 16.5195H174.751C174.877 16.5195 174.981 16.4209 174.981 16.2984C174.981 16.1768 174.878 16.0772 174.751 16.0772H173.613C173.487 16.0772 173.384 16.1758 173.384 16.2984C173.384 16.4209 173.487 16.5195 173.613 16.5195ZM157.944 17.3515C157.818 17.3515 157.715 17.2529 157.715 17.1304C157.715 17.0088 157.817 16.9092 157.944 16.9092H161.797V17.0174C161.777 17.0499 161.765 17.0892 161.765 17.1294C161.765 17.1706 161.777 17.2089 161.797 17.2414V17.3496L157.944 17.3515ZM158.961 11.5956C158.835 11.5956 158.731 11.497 158.731 11.3745C158.731 11.2529 158.834 11.1533 158.961 11.1533H160.043V11.5947L158.961 11.5956ZM158.052 12.5013C157.925 12.5013 157.822 12.4027 157.822 12.2802C157.822 12.1586 157.924 12.059 158.052 12.059H160.042V12.1509C160.016 12.1873 159.999 12.2323 159.999 12.2802C159.999 12.328 160.015 12.373 160.042 12.4094V12.5013H158.052ZM158.793 14.7465C158.667 14.7465 158.563 14.6479 158.563 14.5253C158.563 14.4037 158.666 14.3042 158.793 14.3042H161.763C161.774 14.3042 161.786 14.3051 161.797 14.3061V14.7427C161.786 14.7446 161.775 14.7446 161.763 14.7446L158.793 14.7465ZM157.73 15.6532C157.603 15.6532 157.5 15.5545 157.5 15.432C157.5 15.3104 157.602 15.2108 157.73 15.2108H161.356C161.483 15.2108 161.586 15.3094 161.586 15.432C161.586 15.5536 161.484 15.6532 161.356 15.6532H157.73ZM158.746 16.4459C158.62 16.4459 158.517 16.3473 158.517 16.2247C158.517 16.1032 158.619 16.0036 158.746 16.0036H161.797V16.445L158.746 16.4459Z" fill="white"/>
<circle cx="300.5" cy="16.5" r="6.5" fill="#E8E8E8"/>
<path opacity="0.7" d="M2.218 48H1.196L4.878 37.976H6.124L9.848 48H8.798L7.818 45.34H3.198L2.218 48ZM5.368 39.39L3.506 44.458H7.496L5.62 39.39C5.578 39.25 5.508 39.082 5.494 38.984C5.48 39.068 5.424 39.25 5.368 39.39ZM10.523 44.626C10.523 42.498 11.825 41.042 13.799 41.042C15.367 41.042 16.515 41.952 16.781 43.352H15.815C15.563 42.414 14.751 41.896 13.813 41.896C12.441 41.896 11.475 42.946 11.475 44.612C11.475 46.222 12.371 47.3 13.743 47.3C14.751 47.3 15.563 46.74 15.829 45.872H16.809C16.487 47.258 15.283 48.168 13.743 48.168C11.825 48.168 10.523 46.754 10.523 44.626ZM17.9965 44.626C17.9965 42.498 19.2985 41.042 21.2725 41.042C22.8405 41.042 23.9885 41.952 24.2545 43.352H23.2885C23.0365 42.414 22.2245 41.896 21.2865 41.896C19.9145 41.896 18.9485 42.946 18.9485 44.612C18.9485 46.222 19.8445 47.3 21.2165 47.3C22.2245 47.3 23.0365 46.74 23.3025 45.872H24.2825C23.9605 47.258 22.7565 48.168 21.2165 48.168C19.2985 48.168 17.9965 46.754 17.9965 44.626ZM28.7879 48.168C26.7999 48.168 25.4699 46.74 25.4699 44.612C25.4699 42.498 26.7859 41.042 28.7179 41.042C30.5519 41.042 31.7979 42.344 31.7979 44.262V44.738H26.4079C26.4779 46.39 27.3459 47.342 28.8019 47.342C29.9079 47.342 30.6219 46.866 30.8739 45.97H31.7979C31.4339 47.398 30.3839 48.168 28.7879 48.168ZM28.7179 41.868C27.4439 41.868 26.6039 42.708 26.4359 44.038H30.8319C30.8319 42.736 29.9919 41.868 28.7179 41.868ZM33.5424 50.954V41.224H34.3824L34.4804 42.596C34.9564 41.546 35.9084 41.042 37.0424 41.042C39.0024 41.042 40.1784 42.54 40.1784 44.584C40.1784 46.628 39.0444 48.168 37.0424 48.168C35.8944 48.168 34.9844 47.678 34.5084 46.698V50.954H33.5424ZM34.5224 44.612C34.5224 46.166 35.3904 47.3 36.8744 47.3C38.3444 47.3 39.1984 46.166 39.1984 44.612C39.1984 43.044 38.3444 41.924 36.8744 41.924C35.3904 41.924 34.5224 43.044 34.5224 44.612ZM43.4038 48H42.4518V42.036H41.0938V41.224H42.4518V39.082H43.4038V41.224H44.7618V42.036H43.4038V48ZM48.9934 48.168C47.0054 48.168 45.6754 46.74 45.6754 44.612C45.6754 42.498 46.9914 41.042 48.9234 41.042C50.7574 41.042 52.0034 42.344 52.0034 44.262V44.738H46.6134C46.6834 46.39 47.5514 47.342 49.0074 47.342C50.1134 47.342 50.8274 46.866 51.0794 45.97H52.0034C51.6394 47.398 50.5894 48.168 48.9934 48.168ZM48.9234 41.868C47.6494 41.868 46.8094 42.708 46.6414 44.038H51.0374C51.0374 42.736 50.1974 41.868 48.9234 41.868ZM56.4078 48.168C54.4338 48.168 53.2718 46.656 53.2718 44.626C53.2718 42.582 54.4338 41.042 56.4498 41.042C57.5698 41.042 58.4658 41.532 58.9418 42.512V37.794H59.9078V48H59.0678L58.9698 46.614C58.4938 47.664 57.5418 48.168 56.4078 48.168ZM56.5758 47.286C58.0598 47.286 58.9278 46.166 58.9278 44.598C58.9278 43.044 58.0598 41.91 56.5758 41.91C55.1058 41.91 54.2518 43.044 54.2518 44.598C54.2518 46.166 55.1058 47.286 56.5758 47.286Z" fill="#FC5C2C"/>
<path d="M135.022 48H131.676V37.878H134.966C137.99 37.878 140.034 39.922 140.034 42.946C140.034 45.956 138.018 48 135.022 48ZM134.868 39.138H133.048V46.726H134.924C137.178 46.726 138.606 45.27 138.606 42.946C138.606 40.594 137.178 39.138 134.868 39.138ZM142.4 39.53C141.924 39.53 141.532 39.138 141.532 38.662C141.532 38.172 141.924 37.794 142.4 37.794C142.876 37.794 143.268 38.172 143.268 38.662C143.268 39.138 142.876 39.53 142.4 39.53ZM141.756 48V41.154H143.072V48H141.756ZM144.622 46.012H145.882C145.882 46.712 146.414 47.132 147.282 47.132C148.206 47.132 148.738 46.754 148.738 46.124C148.738 45.662 148.514 45.382 147.8 45.2L146.596 44.92C145.378 44.626 144.804 44.024 144.804 43.016C144.804 41.756 145.868 40.958 147.38 40.958C148.878 40.958 149.858 41.798 149.886 43.1H148.626C148.598 42.414 148.136 41.98 147.338 41.98C146.512 41.98 146.05 42.344 146.05 42.974C146.05 43.436 146.386 43.744 147.058 43.912L148.262 44.206C149.424 44.486 149.998 45.018 149.998 46.04C149.998 47.342 148.878 48.168 147.254 48.168C145.644 48.168 144.622 47.314 144.622 46.012ZM151.657 51.066V41.154H152.847L152.945 42.386C153.407 41.448 154.331 40.958 155.423 40.958C157.383 40.958 158.601 42.428 158.601 44.528C158.601 46.614 157.453 48.182 155.423 48.182C154.331 48.182 153.421 47.72 152.973 46.88V51.066H151.657ZM152.987 44.584C152.987 45.984 153.799 46.992 155.143 46.992C156.487 46.992 157.285 45.984 157.285 44.584C157.285 43.17 156.487 42.162 155.143 42.162C153.799 42.162 152.987 43.156 152.987 44.584ZM162.254 48.168C160.784 48.168 159.916 47.342 159.916 46.096C159.916 44.836 160.854 44.052 162.464 43.926L164.62 43.758V43.562C164.62 42.414 163.934 42.008 163.01 42.008C161.904 42.008 161.274 42.498 161.274 43.324H160.126C160.126 41.896 161.302 40.958 163.066 40.958C164.76 40.958 165.908 41.854 165.908 43.702V48H164.788L164.648 46.894C164.298 47.678 163.36 48.168 162.254 48.168ZM162.632 47.146C163.878 47.146 164.634 46.334 164.634 45.046V44.682L162.884 44.822C161.722 44.934 161.246 45.382 161.246 46.054C161.246 46.782 161.778 47.146 162.632 47.146ZM169.753 48H168.437V42.26H167.093V41.154H168.437V39.012H169.753V41.154H171.097V42.26H169.753V48ZM171.962 44.584C171.962 42.442 173.32 40.958 175.322 40.958C177.044 40.958 178.248 41.938 178.486 43.464H177.17C176.946 42.596 176.246 42.134 175.364 42.134C174.118 42.134 173.264 43.086 173.264 44.57C173.264 46.04 174.062 46.992 175.308 46.992C176.246 46.992 176.946 46.502 177.184 45.69H178.5C178.234 47.174 176.96 48.168 175.308 48.168C173.292 48.168 171.962 46.74 171.962 44.584ZM181.404 47.986H180.088V37.696H181.404V42.204C181.838 41.462 182.664 40.958 183.728 40.958C185.478 40.958 186.318 42.064 186.318 43.814V48H185.002V44.108C185.002 42.722 184.344 42.162 183.364 42.162C182.09 42.162 181.404 43.086 181.404 44.262V47.986ZM188.985 39.53C188.509 39.53 188.117 39.138 188.117 38.662C188.117 38.172 188.509 37.794 188.985 37.794C189.461 37.794 189.853 38.172 189.853 38.662C189.853 39.138 189.461 39.53 188.985 39.53ZM188.341 48V41.154H189.657V48H188.341ZM193.084 48H191.768V41.154H192.958L193.098 42.204C193.532 41.42 194.4 40.958 195.366 40.958C197.172 40.958 197.998 42.064 197.998 43.814V48H196.682V44.108C196.682 42.722 196.038 42.162 195.03 42.162C193.798 42.162 193.084 43.044 193.084 44.374V48ZM199.586 44.402C199.586 42.47 200.832 40.958 202.82 40.958C203.926 40.958 204.78 41.462 205.214 42.316L205.312 41.154H206.488V47.72C206.488 49.876 205.158 51.248 203.058 51.248C201.196 51.248 199.922 50.198 199.67 48.462H200.986C201.154 49.47 201.91 50.058 203.058 50.058C204.346 50.058 205.186 49.218 205.186 47.916V46.544C204.738 47.342 203.842 47.818 202.764 47.818C200.818 47.818 199.586 46.32 199.586 44.402ZM200.902 44.374C200.902 45.662 201.7 46.67 202.988 46.67C204.318 46.67 205.13 45.718 205.13 44.374C205.13 43.058 204.346 42.106 203.002 42.106C201.686 42.106 200.902 43.114 200.902 44.374Z" fill="#FC5C2C"/>
<path d="M272.15 42.988C272.15 46.026 270.176 48.168 267.376 48.168C264.562 48.168 262.602 46.026 262.602 42.988C262.602 39.95 264.576 37.794 267.376 37.794C270.19 37.794 272.15 39.936 272.15 42.988ZM271.114 42.988C271.114 40.482 269.588 38.774 267.376 38.774C265.164 38.774 263.652 40.482 263.652 42.988C263.652 45.494 265.164 47.202 267.376 47.202C269.588 47.202 271.114 45.48 271.114 42.988ZM274.934 48H273.968V41.224H274.808L274.948 42.4C275.396 41.532 276.292 41.042 277.272 41.042C279.134 41.042 279.904 42.148 279.904 43.856V48H278.938V44.066C278.938 42.484 278.224 41.924 277.104 41.924C275.718 41.924 274.934 42.932 274.934 44.458V48ZM287.666 48H286.714V42.036H285.356V41.224H286.714V39.082H287.666V41.224H289.024V42.036H287.666V48ZM291.448 47.986H290.482V37.794H291.448V42.4C291.882 41.588 292.708 41.042 293.842 41.042C295.62 41.042 296.418 42.148 296.418 43.856V48H295.452V44.066C295.452 42.484 294.71 41.924 293.66 41.924C292.204 41.924 291.448 43.002 291.448 44.304V47.986ZM301.385 48.168C299.397 48.168 298.067 46.74 298.067 44.612C298.067 42.498 299.383 41.042 301.315 41.042C303.149 41.042 304.395 42.344 304.395 44.262V44.738H299.005C299.075 46.39 299.943 47.342 301.399 47.342C302.505 47.342 303.219 46.866 303.471 45.97H304.395C304.031 47.398 302.981 48.168 301.385 48.168ZM301.315 41.868C300.041 41.868 299.201 42.708 299.033 44.038H303.429C303.429 42.736 302.589 41.868 301.315 41.868ZM312.406 48L309.424 37.976H310.474L312.504 44.864C312.644 45.354 312.77 45.858 312.896 46.516C313.064 45.788 313.204 45.354 313.358 44.864L315.542 37.976H316.592L318.776 44.864C318.93 45.368 319.07 45.872 319.224 46.516C319.378 45.746 319.504 45.256 319.616 44.878L321.688 37.976H322.71L319.7 48H318.748L316.06 39.488L313.372 48H312.406ZM325.165 48.168C323.723 48.168 322.869 47.356 322.869 46.166C322.869 44.92 323.821 44.136 325.403 44.01L327.643 43.828V43.604C327.643 42.274 326.845 41.854 325.851 41.854C324.675 41.854 323.975 42.386 323.975 43.296H323.093C323.093 41.924 324.213 41.042 325.879 41.042C327.447 41.042 328.595 41.826 328.595 43.618V48H327.783L327.657 46.81C327.237 47.664 326.313 48.168 325.165 48.168ZM325.389 47.384C326.817 47.384 327.643 46.39 327.643 44.92V44.556L325.641 44.71C324.367 44.822 323.849 45.382 323.849 46.138C323.849 46.964 324.465 47.384 325.389 47.384ZM329.897 50.954V50.156H330.639C331.227 50.156 331.815 50.114 332.151 49.204L332.445 48.406L329.701 41.224H330.723L332.907 47.132L335.049 41.224H336.043L332.935 49.554C332.543 50.618 331.885 51.052 330.919 51.052C330.513 51.052 330.205 51.024 329.897 50.954Z" fill="#6B7280"/>
</svg>
