<svg width="338" height="52" viewBox="0 0 338 52" fill="none" xmlns="http://www.w3.org/2000/svg">
<path d="M1 16.5H337" stroke="#ECECEC" stroke-width="2" stroke-linecap="round"/>
<path fill-rule="evenodd" clip-rule="evenodd" d="M1 16.5H337H1Z" fill="#FC5C2C"/>
<path d="M1 16.5H337" stroke="#FC5C2C" stroke-width="2" stroke-linecap="round"/>
<circle cx="30.0701" cy="16.5" r="6" fill="#FC5C2C" stroke="#FC5C2C"/>
<circle cx="305.5" cy="15.5" r="15" fill="#FC5C2C" stroke="#FC5C2C"/>
<path d="M303.655 19.2103L300.314 16.0759L299.2 17.1207L303.655 21.2998L313.2 12.3446L312.087 11.2998L303.655 19.2103Z" fill="white"/>
<circle cx="169.5" cy="16.5" r="6.5" fill="#FC5C2C"/>
<path opacity="0.7" d="M2.218 48H1.196L4.878 37.976H6.124L9.848 48H8.798L7.818 45.34H3.198L2.218 48ZM5.368 39.39L3.506 44.458H7.496L5.62 39.39C5.578 39.25 5.508 39.082 5.494 38.984C5.48 39.068 5.424 39.25 5.368 39.39ZM10.523 44.626C10.523 42.498 11.825 41.042 13.799 41.042C15.367 41.042 16.515 41.952 16.781 43.352H15.815C15.563 42.414 14.751 41.896 13.813 41.896C12.441 41.896 11.475 42.946 11.475 44.612C11.475 46.222 12.371 47.3 13.743 47.3C14.751 47.3 15.563 46.74 15.829 45.872H16.809C16.487 47.258 15.283 48.168 13.743 48.168C11.825 48.168 10.523 46.754 10.523 44.626ZM17.9965 44.626C17.9965 42.498 19.2985 41.042 21.2725 41.042C22.8405 41.042 23.9885 41.952 24.2545 43.352H23.2885C23.0365 42.414 22.2245 41.896 21.2865 41.896C19.9145 41.896 18.9485 42.946 18.9485 44.612C18.9485 46.222 19.8445 47.3 21.2165 47.3C22.2245 47.3 23.0365 46.74 23.3025 45.872H24.2825C23.9605 47.258 22.7565 48.168 21.2165 48.168C19.2985 48.168 17.9965 46.754 17.9965 44.626ZM28.7879 48.168C26.7999 48.168 25.4699 46.74 25.4699 44.612C25.4699 42.498 26.7859 41.042 28.7179 41.042C30.5519 41.042 31.7979 42.344 31.7979 44.262V44.738H26.4079C26.4779 46.39 27.3459 47.342 28.8019 47.342C29.9079 47.342 30.6219 46.866 30.8739 45.97H31.7979C31.4339 47.398 30.3839 48.168 28.7879 48.168ZM28.7179 41.868C27.4439 41.868 26.6039 42.708 26.4359 44.038H30.8319C30.8319 42.736 29.9919 41.868 28.7179 41.868ZM33.5424 50.954V41.224H34.3824L34.4804 42.596C34.9564 41.546 35.9084 41.042 37.0424 41.042C39.0024 41.042 40.1784 42.54 40.1784 44.584C40.1784 46.628 39.0444 48.168 37.0424 48.168C35.8944 48.168 34.9844 47.678 34.5084 46.698V50.954H33.5424ZM34.5224 44.612C34.5224 46.166 35.3904 47.3 36.8744 47.3C38.3444 47.3 39.1984 46.166 39.1984 44.612C39.1984 43.044 38.3444 41.924 36.8744 41.924C35.3904 41.924 34.5224 43.044 34.5224 44.612ZM43.4038 48H42.4518V42.036H41.0938V41.224H42.4518V39.082H43.4038V41.224H44.7618V42.036H43.4038V48ZM48.9934 48.168C47.0054 48.168 45.6754 46.74 45.6754 44.612C45.6754 42.498 46.9914 41.042 48.9234 41.042C50.7574 41.042 52.0034 42.344 52.0034 44.262V44.738H46.6134C46.6834 46.39 47.5514 47.342 49.0074 47.342C50.1134 47.342 50.8274 46.866 51.0794 45.97H52.0034C51.6394 47.398 50.5894 48.168 48.9934 48.168ZM48.9234 41.868C47.6494 41.868 46.8094 42.708 46.6414 44.038H51.0374C51.0374 42.736 50.1974 41.868 48.9234 41.868ZM56.4078 48.168C54.4338 48.168 53.2718 46.656 53.2718 44.626C53.2718 42.582 54.4338 41.042 56.4498 41.042C57.5698 41.042 58.4658 41.532 58.9418 42.512V37.794H59.9078V48H59.0678L58.9698 46.614C58.4938 47.664 57.5418 48.168 56.4078 48.168ZM56.5758 47.286C58.0598 47.286 58.9278 46.166 58.9278 44.598C58.9278 43.044 58.0598 41.91 56.5758 41.91C55.1058 41.91 54.2518 43.044 54.2518 44.598C54.2518 46.166 55.1058 47.286 56.5758 47.286Z" fill="#FC5C2C"/>
<path d="M138.27 48H135.218V37.976H138.242C141.266 37.976 143.282 39.992 143.282 42.988C143.282 45.984 141.28 48 138.27 48ZM138.2 38.9H136.226V47.076H138.228C140.678 47.076 142.246 45.48 142.246 42.988C142.246 40.482 140.678 38.9 138.2 38.9ZM145.569 39.362C145.177 39.362 144.855 39.04 144.855 38.648C144.855 38.256 145.177 37.92 145.569 37.92C145.961 37.92 146.297 38.256 146.297 38.648C146.297 39.04 145.961 39.362 145.569 39.362ZM145.093 48V41.224H146.059V48H145.093ZM147.699 46.096H148.623C148.623 46.88 149.211 47.37 150.163 47.37C151.213 47.37 151.829 46.922 151.829 46.194C151.829 45.634 151.549 45.312 150.751 45.116L149.589 44.822C148.413 44.528 147.839 43.912 147.839 42.988C147.839 41.798 148.833 41.042 150.289 41.042C151.717 41.042 152.641 41.826 152.683 43.086H151.745C151.717 42.302 151.171 41.84 150.261 41.84C149.309 41.84 148.777 42.246 148.777 42.974C148.777 43.492 149.141 43.856 149.883 44.038L151.045 44.332C152.221 44.626 152.753 45.172 152.753 46.152C152.753 47.37 151.717 48.168 150.177 48.168C148.651 48.168 147.699 47.356 147.699 46.096ZM154.544 50.954V41.224H155.384L155.482 42.596C155.958 41.546 156.91 41.042 158.044 41.042C160.004 41.042 161.18 42.54 161.18 44.584C161.18 46.628 160.046 48.168 158.044 48.168C156.896 48.168 155.986 47.678 155.51 46.698V50.954H154.544ZM155.524 44.612C155.524 46.166 156.392 47.3 157.876 47.3C159.346 47.3 160.2 46.166 160.2 44.612C160.2 43.044 159.346 41.924 157.876 41.924C156.392 41.924 155.524 43.044 155.524 44.612ZM164.865 48.168C163.423 48.168 162.569 47.356 162.569 46.166C162.569 44.92 163.521 44.136 165.103 44.01L167.343 43.828V43.604C167.343 42.274 166.545 41.854 165.551 41.854C164.375 41.854 163.675 42.386 163.675 43.296H162.793C162.793 41.924 163.913 41.042 165.579 41.042C167.147 41.042 168.295 41.826 168.295 43.618V48H167.483L167.357 46.81C166.937 47.664 166.013 48.168 164.865 48.168ZM165.089 47.384C166.517 47.384 167.343 46.39 167.343 44.92V44.556L165.341 44.71C164.067 44.822 163.549 45.382 163.549 46.138C163.549 46.964 164.165 47.384 165.089 47.384ZM171.865 48H170.913V42.036H169.555V41.224H170.913V39.082H171.865V41.224H173.223V42.036H171.865V48ZM174.136 44.626C174.136 42.498 175.438 41.042 177.412 41.042C178.98 41.042 180.128 41.952 180.394 43.352H179.428C179.176 42.414 178.364 41.896 177.426 41.896C176.054 41.896 175.088 42.946 175.088 44.612C175.088 46.222 175.984 47.3 177.356 47.3C178.364 47.3 179.176 46.74 179.442 45.872H180.422C180.1 47.258 178.896 48.168 177.356 48.168C175.438 48.168 174.136 46.754 174.136 44.626ZM183.052 47.986H182.086V37.794H183.052V42.4C183.486 41.588 184.312 41.042 185.446 41.042C187.224 41.042 188.022 42.148 188.022 43.856V48H187.056V44.066C187.056 42.484 186.314 41.924 185.264 41.924C183.808 41.924 183.052 43.002 183.052 44.304V47.986ZM192.989 48.168C191.001 48.168 189.671 46.74 189.671 44.612C189.671 42.498 190.987 41.042 192.919 41.042C194.753 41.042 195.999 42.344 195.999 44.262V44.738H190.609C190.679 46.39 191.547 47.342 193.003 47.342C194.109 47.342 194.823 46.866 195.075 45.97H195.999C195.635 47.398 194.585 48.168 192.989 48.168ZM192.919 41.868C191.645 41.868 190.805 42.708 190.637 44.038H195.033C195.033 42.736 194.193 41.868 192.919 41.868ZM200.404 48.168C198.43 48.168 197.268 46.656 197.268 44.626C197.268 42.582 198.43 41.042 200.446 41.042C201.566 41.042 202.462 41.532 202.938 42.512V37.794H203.904V48H203.064L202.966 46.614C202.49 47.664 201.538 48.168 200.404 48.168ZM200.572 47.286C202.056 47.286 202.924 46.166 202.924 44.598C202.924 43.044 202.056 41.91 200.572 41.91C199.102 41.91 198.248 43.044 198.248 44.598C198.248 46.166 199.102 47.286 200.572 47.286Z" fill="#FC5C2C"/>
<path d="M279.522 48H276.176V37.878H279.466C282.49 37.878 284.534 39.922 284.534 42.946C284.534 45.956 282.518 48 279.522 48ZM279.368 39.138H277.548V46.726H279.424C281.678 46.726 283.106 45.27 283.106 42.946C283.106 40.594 281.678 39.138 279.368 39.138ZM289.21 48.168C287.194 48.168 285.808 46.712 285.808 44.584C285.808 42.442 287.166 40.958 289.154 40.958C291.1 40.958 292.374 42.302 292.374 44.332V44.822L287.082 44.836C287.18 46.278 287.936 47.076 289.238 47.076C290.26 47.076 290.932 46.656 291.156 45.872H292.388C292.052 47.342 290.904 48.168 289.21 48.168ZM289.154 42.064C288.006 42.064 287.278 42.75 287.11 43.954H291.058C291.058 42.82 290.316 42.064 289.154 42.064ZM295.387 48H294.071V37.696H295.387V48ZM298.169 39.53C297.693 39.53 297.301 39.138 297.301 38.662C297.301 38.172 297.693 37.794 298.169 37.794C298.645 37.794 299.037 38.172 299.037 38.662C299.037 39.138 298.645 39.53 298.169 39.53ZM297.525 48V41.154H298.841V48H297.525ZM302.869 48L300.111 41.154H301.511L303.009 44.976C303.247 45.62 303.443 46.194 303.555 46.614C303.667 46.166 303.891 45.578 304.129 44.976L305.655 41.154H307.027L304.171 48H302.869ZM310.914 48.168C308.898 48.168 307.512 46.712 307.512 44.584C307.512 42.442 308.87 40.958 310.858 40.958C312.804 40.958 314.078 42.302 314.078 44.332V44.822L308.786 44.836C308.884 46.278 309.64 47.076 310.942 47.076C311.964 47.076 312.636 46.656 312.86 45.872H314.092C313.756 47.342 312.608 48.168 310.914 48.168ZM310.858 42.064C309.71 42.064 308.982 42.75 308.814 43.954H312.762C312.762 42.82 312.02 42.064 310.858 42.064ZM319.668 41.098V42.302H319.08C317.834 42.302 317.064 43.058 317.064 44.374V48H315.748V41.168H316.98L317.064 42.204C317.344 41.49 318.03 41.014 318.968 41.014C319.206 41.014 319.402 41.042 319.668 41.098ZM323.81 48.168C321.794 48.168 320.408 46.712 320.408 44.584C320.408 42.442 321.766 40.958 323.754 40.958C325.7 40.958 326.974 42.302 326.974 44.332V44.822L321.682 44.836C321.78 46.278 322.536 47.076 323.838 47.076C324.86 47.076 325.532 46.656 325.756 45.872H326.988C326.652 47.342 325.504 48.168 323.81 48.168ZM323.754 42.064C322.606 42.064 321.878 42.75 321.71 43.954H325.658C325.658 42.82 324.916 42.064 323.754 42.064ZM331.388 48.168C329.4 48.168 328.196 46.684 328.196 44.598C328.196 42.498 329.414 40.958 331.444 40.958C332.494 40.958 333.376 41.42 333.838 42.26V37.696H335.14V48H333.964L333.852 46.754C333.404 47.692 332.48 48.168 331.388 48.168ZM331.654 46.978C332.998 46.978 333.824 45.984 333.824 44.556C333.824 43.156 332.998 42.148 331.654 42.148C330.31 42.148 329.526 43.156 329.526 44.556C329.526 45.97 330.31 46.978 331.654 46.978Z" fill="#FC5C2C"/>
</svg>
