<svg width="338" height="52" viewBox="0 0 338 52" fill="none" xmlns="http://www.w3.org/2000/svg">
<path d="M1 17H337" stroke="#ECECEC" stroke-width="2" stroke-linecap="round"/>
<path fill-rule="evenodd" clip-rule="evenodd" d="M1 17H16H1Z" fill="#FC5C2C"/>
<path d="M1 17H16" stroke="#FC5C2C" stroke-width="2" stroke-linecap="round"/>
<circle cx="30.0657" cy="17.5" r="6" fill="#FC5C2C" stroke="#FC5C2C"/>
<circle cx="27.5" cy="15.5" r="15" fill="#FC5C2C" stroke="#FC5C2C"/>
<path d="M25.4155 18.6308C25.0297 18.9967 24.4249 18.9967 24.0391 18.6308L21.11 15.8523C20.7298 15.4916 20.1338 15.4916 19.7537 15.8523C19.344 16.2408 19.344 16.8935 19.7537 17.2821L24.0391 21.3472C24.4249 21.7132 25.0297 21.7132 25.4155 21.3472L36.2463 11.0731C36.656 10.6845 36.656 10.0319 36.2463 9.6433C35.8662 9.28265 35.2702 9.28265 34.89 9.6433L25.4155 18.6308Z" fill="white"/>
<circle cx="300.5" cy="16.5" r="6.5" fill="#E8E8E8"/>
<circle cx="169.5" cy="16.5" r="6.5" fill="#E8E8E8"/>
<path d="M2.218 48H1.196L4.878 37.976H6.124L9.848 48H8.798L7.818 45.34H3.198L2.218 48ZM5.368 39.39L3.506 44.458H7.496L5.62 39.39C5.578 39.25 5.508 39.082 5.494 38.984C5.48 39.068 5.424 39.25 5.368 39.39ZM10.523 44.626C10.523 42.498 11.825 41.042 13.799 41.042C15.367 41.042 16.515 41.952 16.781 43.352H15.815C15.563 42.414 14.751 41.896 13.813 41.896C12.441 41.896 11.475 42.946 11.475 44.612C11.475 46.222 12.371 47.3 13.743 47.3C14.751 47.3 15.563 46.74 15.829 45.872H16.809C16.487 47.258 15.283 48.168 13.743 48.168C11.825 48.168 10.523 46.754 10.523 44.626ZM17.9965 44.626C17.9965 42.498 19.2985 41.042 21.2725 41.042C22.8405 41.042 23.9885 41.952 24.2545 43.352H23.2885C23.0365 42.414 22.2245 41.896 21.2865 41.896C19.9145 41.896 18.9485 42.946 18.9485 44.612C18.9485 46.222 19.8445 47.3 21.2165 47.3C22.2245 47.3 23.0365 46.74 23.3025 45.872H24.2825C23.9605 47.258 22.7565 48.168 21.2165 48.168C19.2985 48.168 17.9965 46.754 17.9965 44.626ZM28.7879 48.168C26.7999 48.168 25.4699 46.74 25.4699 44.612C25.4699 42.498 26.7859 41.042 28.7179 41.042C30.5519 41.042 31.7979 42.344 31.7979 44.262V44.738H26.4079C26.4779 46.39 27.3459 47.342 28.8019 47.342C29.9079 47.342 30.6219 46.866 30.8739 45.97H31.7979C31.4339 47.398 30.3839 48.168 28.7879 48.168ZM28.7179 41.868C27.4439 41.868 26.6039 42.708 26.4359 44.038H30.8319C30.8319 42.736 29.9919 41.868 28.7179 41.868ZM33.5424 50.954V41.224H34.3824L34.4804 42.596C34.9564 41.546 35.9084 41.042 37.0424 41.042C39.0024 41.042 40.1784 42.54 40.1784 44.584C40.1784 46.628 39.0444 48.168 37.0424 48.168C35.8944 48.168 34.9844 47.678 34.5084 46.698V50.954H33.5424ZM34.5224 44.612C34.5224 46.166 35.3904 47.3 36.8744 47.3C38.3444 47.3 39.1984 46.166 39.1984 44.612C39.1984 43.044 38.3444 41.924 36.8744 41.924C35.3904 41.924 34.5224 43.044 34.5224 44.612ZM43.4038 48H42.4518V42.036H41.0938V41.224H42.4518V39.082H43.4038V41.224H44.7618V42.036H43.4038V48ZM48.9934 48.168C47.0054 48.168 45.6754 46.74 45.6754 44.612C45.6754 42.498 46.9914 41.042 48.9234 41.042C50.7574 41.042 52.0034 42.344 52.0034 44.262V44.738H46.6134C46.6834 46.39 47.5514 47.342 49.0074 47.342C50.1134 47.342 50.8274 46.866 51.0794 45.97H52.0034C51.6394 47.398 50.5894 48.168 48.9934 48.168ZM48.9234 41.868C47.6494 41.868 46.8094 42.708 46.6414 44.038H51.0374C51.0374 42.736 50.1974 41.868 48.9234 41.868ZM56.4078 48.168C54.4338 48.168 53.2718 46.656 53.2718 44.626C53.2718 42.582 54.4338 41.042 56.4498 41.042C57.5698 41.042 58.4658 41.532 58.9418 42.512V37.794H59.9078V48H59.0678L58.9698 46.614C58.4938 47.664 57.5418 48.168 56.4078 48.168ZM56.5758 47.286C58.0598 47.286 58.9278 46.166 58.9278 44.598C58.9278 43.044 58.0598 41.91 56.5758 41.91C55.1058 41.91 54.2518 43.044 54.2518 44.598C54.2518 46.166 55.1058 47.286 56.5758 47.286Z" fill="#FC5C2C"/>
<path d="M134.77 48H131.718V37.976H134.742C137.766 37.976 139.782 39.992 139.782 42.988C139.782 45.984 137.78 48 134.77 48ZM134.7 38.9H132.726V47.076H134.728C137.178 47.076 138.746 45.48 138.746 42.988C138.746 40.482 137.178 38.9 134.7 38.9ZM142.069 39.362C141.677 39.362 141.355 39.04 141.355 38.648C141.355 38.256 141.677 37.92 142.069 37.92C142.461 37.92 142.797 38.256 142.797 38.648C142.797 39.04 142.461 39.362 142.069 39.362ZM141.593 48V41.224H142.559V48H141.593ZM144.199 46.096H145.123C145.123 46.88 145.711 47.37 146.663 47.37C147.713 47.37 148.329 46.922 148.329 46.194C148.329 45.634 148.049 45.312 147.251 45.116L146.089 44.822C144.913 44.528 144.339 43.912 144.339 42.988C144.339 41.798 145.333 41.042 146.789 41.042C148.217 41.042 149.141 41.826 149.183 43.086H148.245C148.217 42.302 147.671 41.84 146.761 41.84C145.809 41.84 145.277 42.246 145.277 42.974C145.277 43.492 145.641 43.856 146.383 44.038L147.545 44.332C148.721 44.626 149.253 45.172 149.253 46.152C149.253 47.37 148.217 48.168 146.677 48.168C145.151 48.168 144.199 47.356 144.199 46.096ZM151.044 50.954V41.224H151.884L151.982 42.596C152.458 41.546 153.41 41.042 154.544 41.042C156.504 41.042 157.68 42.54 157.68 44.584C157.68 46.628 156.546 48.168 154.544 48.168C153.396 48.168 152.486 47.678 152.01 46.698V50.954H151.044ZM152.024 44.612C152.024 46.166 152.892 47.3 154.376 47.3C155.846 47.3 156.7 46.166 156.7 44.612C156.7 43.044 155.846 41.924 154.376 41.924C152.892 41.924 152.024 43.044 152.024 44.612ZM161.365 48.168C159.923 48.168 159.069 47.356 159.069 46.166C159.069 44.92 160.021 44.136 161.603 44.01L163.843 43.828V43.604C163.843 42.274 163.045 41.854 162.051 41.854C160.875 41.854 160.175 42.386 160.175 43.296H159.293C159.293 41.924 160.413 41.042 162.079 41.042C163.647 41.042 164.795 41.826 164.795 43.618V48H163.983L163.857 46.81C163.437 47.664 162.513 48.168 161.365 48.168ZM161.589 47.384C163.017 47.384 163.843 46.39 163.843 44.92V44.556L161.841 44.71C160.567 44.822 160.049 45.382 160.049 46.138C160.049 46.964 160.665 47.384 161.589 47.384ZM168.365 48H167.413V42.036H166.055V41.224H167.413V39.082H168.365V41.224H169.723V42.036H168.365V48ZM170.636 44.626C170.636 42.498 171.938 41.042 173.912 41.042C175.48 41.042 176.628 41.952 176.894 43.352H175.928C175.676 42.414 174.864 41.896 173.926 41.896C172.554 41.896 171.588 42.946 171.588 44.612C171.588 46.222 172.484 47.3 173.856 47.3C174.864 47.3 175.676 46.74 175.942 45.872H176.922C176.6 47.258 175.396 48.168 173.856 48.168C171.938 48.168 170.636 46.754 170.636 44.626ZM179.552 47.986H178.586V37.794H179.552V42.4C179.986 41.588 180.812 41.042 181.946 41.042C183.724 41.042 184.522 42.148 184.522 43.856V48H183.556V44.066C183.556 42.484 182.814 41.924 181.764 41.924C180.308 41.924 179.552 43.002 179.552 44.304V47.986ZM187.123 39.362C186.731 39.362 186.409 39.04 186.409 38.648C186.409 38.256 186.731 37.92 187.123 37.92C187.515 37.92 187.851 38.256 187.851 38.648C187.851 39.04 187.515 39.362 187.123 39.362ZM186.647 48V41.224H187.613V48H186.647ZM190.794 48H189.828V41.224H190.668L190.808 42.4C191.256 41.532 192.152 41.042 193.132 41.042C194.994 41.042 195.764 42.148 195.764 43.856V48H194.798V44.066C194.798 42.484 194.084 41.924 192.964 41.924C191.578 41.924 190.794 42.932 190.794 44.458V48ZM197.427 44.416C197.427 42.568 198.617 41.042 200.605 41.042C201.781 41.042 202.677 41.588 203.111 42.582L203.209 41.224H204.049V47.79C204.049 49.806 202.761 51.122 200.773 51.122C199.037 51.122 197.819 50.142 197.553 48.504H198.519C198.729 49.596 199.569 50.24 200.787 50.24C202.173 50.24 203.097 49.302 203.097 47.888V46.278C202.635 47.23 201.697 47.79 200.535 47.79C198.603 47.79 197.427 46.264 197.427 44.416ZM198.393 44.402C198.393 45.788 199.247 46.922 200.675 46.922C202.145 46.922 203.013 45.858 203.013 44.402C203.013 42.96 202.173 41.896 200.689 41.896C199.233 41.896 198.393 43.03 198.393 44.402Z" fill="#6B7280"/>
<path d="M272.15 42.988C272.15 46.026 270.176 48.168 267.376 48.168C264.562 48.168 262.602 46.026 262.602 42.988C262.602 39.95 264.576 37.794 267.376 37.794C270.19 37.794 272.15 39.936 272.15 42.988ZM271.114 42.988C271.114 40.482 269.588 38.774 267.376 38.774C265.164 38.774 263.652 40.482 263.652 42.988C263.652 45.494 265.164 47.202 267.376 47.202C269.588 47.202 271.114 45.48 271.114 42.988ZM274.934 48H273.968V41.224H274.808L274.948 42.4C275.396 41.532 276.292 41.042 277.272 41.042C279.134 41.042 279.904 42.148 279.904 43.856V48H278.938V44.066C278.938 42.484 278.224 41.924 277.104 41.924C275.718 41.924 274.934 42.932 274.934 44.458V48ZM287.666 48H286.714V42.036H285.356V41.224H286.714V39.082H287.666V41.224H289.024V42.036H287.666V48ZM291.448 47.986H290.482V37.794H291.448V42.4C291.882 41.588 292.708 41.042 293.842 41.042C295.62 41.042 296.418 42.148 296.418 43.856V48H295.452V44.066C295.452 42.484 294.71 41.924 293.66 41.924C292.204 41.924 291.448 43.002 291.448 44.304V47.986ZM301.385 48.168C299.397 48.168 298.067 46.74 298.067 44.612C298.067 42.498 299.383 41.042 301.315 41.042C303.149 41.042 304.395 42.344 304.395 44.262V44.738H299.005C299.075 46.39 299.943 47.342 301.399 47.342C302.505 47.342 303.219 46.866 303.471 45.97H304.395C304.031 47.398 302.981 48.168 301.385 48.168ZM301.315 41.868C300.041 41.868 299.201 42.708 299.033 44.038H303.429C303.429 42.736 302.589 41.868 301.315 41.868ZM312.406 48L309.424 37.976H310.474L312.504 44.864C312.644 45.354 312.77 45.858 312.896 46.516C313.064 45.788 313.204 45.354 313.358 44.864L315.542 37.976H316.592L318.776 44.864C318.93 45.368 319.07 45.872 319.224 46.516C319.378 45.746 319.504 45.256 319.616 44.878L321.688 37.976H322.71L319.7 48H318.748L316.06 39.488L313.372 48H312.406ZM325.165 48.168C323.723 48.168 322.869 47.356 322.869 46.166C322.869 44.92 323.821 44.136 325.403 44.01L327.643 43.828V43.604C327.643 42.274 326.845 41.854 325.851 41.854C324.675 41.854 323.975 42.386 323.975 43.296H323.093C323.093 41.924 324.213 41.042 325.879 41.042C327.447 41.042 328.595 41.826 328.595 43.618V48H327.783L327.657 46.81C327.237 47.664 326.313 48.168 325.165 48.168ZM325.389 47.384C326.817 47.384 327.643 46.39 327.643 44.92V44.556L325.641 44.71C324.367 44.822 323.849 45.382 323.849 46.138C323.849 46.964 324.465 47.384 325.389 47.384ZM329.897 50.954V50.156H330.639C331.227 50.156 331.815 50.114 332.151 49.204L332.445 48.406L329.701 41.224H330.723L332.907 47.132L335.049 41.224H336.043L332.935 49.554C332.543 50.618 331.885 51.052 330.919 51.052C330.513 51.052 330.205 51.024 329.897 50.954Z" fill="#6B7280"/>
</svg>
