<svg width="353" height="75" viewBox="0 0 353 75" fill="none" xmlns="http://www.w3.org/2000/svg">
<g opacity="0.7">
<rect y="16" width="20" height="20" rx="10" fill="white"/>
<path d="M8.49998 28.6895L6.03023 26.2197L4.96973 27.2802L8.49998 30.8105L15.7802 23.5302L14.7197 22.4697L8.49998 28.6895Z" fill="#FC5C2C"/>
<path d="M4.77908 50.646H2.40008V54H1.12608V44.601H4.77908C6.62508 44.601 7.80808 45.81 7.80808 47.617C7.80808 49.372 6.61208 50.646 4.77908 50.646ZM4.55808 45.745H2.40008V49.502H4.50608C5.76708 49.502 6.46908 48.761 6.46908 47.604C6.46908 46.421 5.75408 45.745 4.55808 45.745ZM10.7782 54.156C9.41317 54.156 8.60717 53.389 8.60717 52.232C8.60717 51.062 9.47817 50.334 10.9732 50.217L12.9752 50.061V49.879C12.9752 48.813 12.3382 48.436 11.4802 48.436C10.4532 48.436 9.86817 48.891 9.86817 49.658H8.80217C8.80217 48.332 9.89417 47.461 11.5322 47.461C13.1052 47.461 14.1712 48.293 14.1712 50.009V54H13.1312L13.0012 52.973C12.6762 53.701 11.8052 54.156 10.7782 54.156ZM11.1292 53.207C12.2862 53.207 12.9882 52.453 12.9882 51.257V50.919L11.3632 51.049C10.2842 51.153 9.84217 51.569 9.84217 52.193C9.84217 52.869 10.3362 53.207 11.1292 53.207ZM19.6335 47.591V48.709H19.0875C17.9305 48.709 17.2155 49.411 17.2155 50.633V54H15.9935V47.656H17.1375L17.2155 48.618C17.4755 47.955 18.1125 47.513 18.9835 47.513C19.2045 47.513 19.3865 47.539 19.6335 47.591ZM20.2651 50.828C20.2651 48.839 21.5261 47.461 23.3851 47.461C24.9841 47.461 26.1021 48.371 26.3231 49.788H25.1011C24.8931 48.982 24.2431 48.553 23.4241 48.553C22.2671 48.553 21.4741 49.437 21.4741 50.815C21.4741 52.18 22.2151 53.064 23.3721 53.064C24.2431 53.064 24.8931 52.609 25.1141 51.855H26.3361C26.0891 53.233 24.9061 54.156 23.3721 54.156C21.5001 54.156 20.2651 52.83 20.2651 50.828ZM30.4985 54.156C28.6265 54.156 27.3395 52.804 27.3395 50.828C27.3395 48.839 28.6005 47.461 30.4465 47.461C32.2535 47.461 33.4365 48.709 33.4365 50.594V51.049L28.5225 51.062C28.6135 52.401 29.3155 53.142 30.5245 53.142C31.4735 53.142 32.0975 52.752 32.3055 52.024H33.4495C33.1375 53.389 32.0715 54.156 30.4985 54.156ZM30.4465 48.488C29.3805 48.488 28.7045 49.125 28.5485 50.243H32.2145C32.2145 49.19 31.5255 48.488 30.4465 48.488ZM36.1794 54H34.9574V44.432H36.1794V54ZM45.6539 50.646H43.2749V54H42.0009V44.601H45.6539C47.4999 44.601 48.6829 45.81 48.6829 47.617C48.6829 49.372 47.4869 50.646 45.6539 50.646ZM45.4329 45.745H43.2749V49.502H45.3809C46.6419 49.502 47.3439 48.761 47.3439 47.604C47.3439 46.421 46.6289 45.745 45.4329 45.745ZM50.6459 46.135C50.2039 46.135 49.8399 45.771 49.8399 45.329C49.8399 44.874 50.2039 44.523 50.6459 44.523C51.0879 44.523 51.4519 44.874 51.4519 45.329C51.4519 45.771 51.0879 46.135 50.6459 46.135ZM50.0479 54V47.643H51.2699V54H50.0479ZM52.758 50.828C52.758 48.839 54.019 47.461 55.878 47.461C57.477 47.461 58.595 48.371 58.816 49.788H57.594C57.386 48.982 56.736 48.553 55.917 48.553C54.76 48.553 53.967 49.437 53.967 50.815C53.967 52.18 54.708 53.064 55.865 53.064C56.736 53.064 57.386 52.609 57.607 51.855H58.829C58.582 53.233 57.399 54.156 55.865 54.156C53.993 54.156 52.758 52.83 52.758 50.828ZM61.4964 54H60.2744V44.432H61.4964V50.633L64.3174 47.643H65.8514L63.4204 50.178L65.8384 54H64.4344L62.5754 51.062L61.4964 52.193V54Z" fill="white"/>
</g>
<rect x="75.5" y="36.5" width="29" height="2" fill="white"/>
<g opacity="0.7">
<rect x="114" y="16" width="20" height="20" rx="10" fill="white"/>
<path d="M122.5 28.6895L120.03 26.2197L118.97 27.2802L122.5 30.8105L129.78 23.5302L128.72 22.4697L122.5 28.6895Z" fill="#FC5C2C"/>
<path d="M119.208 50.646H116.829V54H115.555V44.601H119.208C121.054 44.601 122.237 45.81 122.237 47.617C122.237 49.372 121.041 50.646 119.208 50.646ZM118.987 45.745H116.829V49.502H118.935C120.196 49.502 120.898 48.761 120.898 47.604C120.898 46.421 120.183 45.745 118.987 45.745ZM125.207 54.156C123.842 54.156 123.036 53.389 123.036 52.232C123.036 51.062 123.907 50.334 125.402 50.217L127.404 50.061V49.879C127.404 48.813 126.767 48.436 125.909 48.436C124.882 48.436 124.297 48.891 124.297 49.658H123.231C123.231 48.332 124.323 47.461 125.961 47.461C127.534 47.461 128.6 48.293 128.6 50.009V54H127.56L127.43 52.973C127.105 53.701 126.234 54.156 125.207 54.156ZM125.558 53.207C126.715 53.207 127.417 52.453 127.417 51.257V50.919L125.792 51.049C124.713 51.153 124.271 51.569 124.271 52.193C124.271 52.869 124.765 53.207 125.558 53.207ZM134.062 47.591V48.709H133.516C132.359 48.709 131.644 49.411 131.644 50.633V54H130.422V47.656H131.566L131.644 48.618C131.904 47.955 132.541 47.513 133.412 47.513C133.633 47.513 133.815 47.539 134.062 47.591ZM134.694 50.828C134.694 48.839 135.955 47.461 137.814 47.461C139.413 47.461 140.531 48.371 140.752 49.788H139.53C139.322 48.982 138.672 48.553 137.853 48.553C136.696 48.553 135.903 49.437 135.903 50.815C135.903 52.18 136.644 53.064 137.801 53.064C138.672 53.064 139.322 52.609 139.543 51.855H140.765C140.518 53.233 139.335 54.156 137.801 54.156C135.929 54.156 134.694 52.83 134.694 50.828ZM144.927 54.156C143.055 54.156 141.768 52.804 141.768 50.828C141.768 48.839 143.029 47.461 144.875 47.461C146.682 47.461 147.865 48.709 147.865 50.594V51.049L142.951 51.062C143.042 52.401 143.744 53.142 144.953 53.142C145.902 53.142 146.526 52.752 146.734 52.024H147.878C147.566 53.389 146.5 54.156 144.927 54.156ZM144.875 48.488C143.809 48.488 143.133 49.125 142.977 50.243H146.643C146.643 49.19 145.954 48.488 144.875 48.488ZM150.608 54H149.386V44.432H150.608V54ZM159.536 54H156.429V44.601H159.484C162.292 44.601 164.19 46.499 164.19 49.307C164.19 52.102 162.318 54 159.536 54ZM159.393 45.771H157.703V52.817H159.445C161.538 52.817 162.864 51.465 162.864 49.307C162.864 47.123 161.538 45.771 159.393 45.771ZM168.476 54.156C166.604 54.156 165.317 52.804 165.317 50.828C165.317 48.839 166.578 47.461 168.424 47.461C170.231 47.461 171.414 48.709 171.414 50.594V51.049L166.5 51.062C166.591 52.401 167.293 53.142 168.502 53.142C169.451 53.142 170.075 52.752 170.283 52.024H171.427C171.115 53.389 170.049 54.156 168.476 54.156ZM168.424 48.488C167.358 48.488 166.682 49.125 166.526 50.243H170.192C170.192 49.19 169.503 48.488 168.424 48.488ZM174.157 54H172.935V44.432H174.157V54ZM176.684 46.135C176.242 46.135 175.878 45.771 175.878 45.329C175.878 44.874 176.242 44.523 176.684 44.523C177.126 44.523 177.49 44.874 177.49 45.329C177.49 45.771 177.126 46.135 176.684 46.135ZM176.086 54V47.643H177.308V54H176.086ZM180.993 54L178.432 47.643H179.732L181.123 51.192C181.344 51.79 181.526 52.323 181.63 52.713C181.734 52.297 181.942 51.751 182.163 51.192L183.58 47.643H184.854L182.202 54H180.993ZM188.407 54.156C186.535 54.156 185.248 52.804 185.248 50.828C185.248 48.839 186.509 47.461 188.355 47.461C190.162 47.461 191.345 48.709 191.345 50.594V51.049L186.431 51.062C186.522 52.401 187.224 53.142 188.433 53.142C189.382 53.142 190.006 52.752 190.214 52.024H191.358C191.046 53.389 189.98 54.156 188.407 54.156ZM188.355 48.488C187.289 48.488 186.613 49.125 186.457 50.243H190.123C190.123 49.19 189.434 48.488 188.355 48.488ZM196.48 47.591V48.709H195.934C194.777 48.709 194.062 49.411 194.062 50.633V54H192.84V47.656H193.984L194.062 48.618C194.322 47.955 194.959 47.513 195.83 47.513C196.051 47.513 196.233 47.539 196.48 47.591ZM197.336 56.847V55.846H198.155C198.74 55.846 199.208 55.755 199.507 54.949L199.728 54.338L197.167 47.643H198.454L200.3 52.765L202.185 47.643H203.446L200.443 55.43C200.014 56.522 199.377 56.977 198.402 56.977C197.999 56.977 197.661 56.925 197.336 56.847Z" fill="white"/>
</g>
<rect x="213.5" y="36.5" width="29" height="2" fill="white"/>
<rect x="252.5" y="16.5" width="19" height="19" rx="9.5" stroke="white"/>
<path d="M260.708 25.2783H261.692C262.075 25.2783 262.392 25.2122 262.643 25.0801C262.898 24.9479 263.087 24.7656 263.21 24.5332C263.333 24.3008 263.395 24.0342 263.395 23.7334C263.395 23.4189 263.338 23.1501 263.224 22.9268C263.114 22.6989 262.946 22.5234 262.718 22.4004C262.494 22.2773 262.21 22.2158 261.863 22.2158C261.572 22.2158 261.307 22.2751 261.07 22.3936C260.838 22.5075 260.653 22.6715 260.517 22.8857C260.38 23.0954 260.312 23.346 260.312 23.6377H258.657C258.657 23.109 258.796 22.6396 259.074 22.2295C259.352 21.8193 259.73 21.498 260.209 21.2656C260.692 21.0286 261.234 20.9102 261.836 20.9102C262.479 20.9102 263.039 21.0173 263.518 21.2314C264.001 21.4411 264.377 21.7555 264.646 22.1748C264.914 22.5941 265.049 23.1136 265.049 23.7334C265.049 24.016 264.983 24.3031 264.851 24.5947C264.718 24.8864 264.522 25.153 264.263 25.3945C264.003 25.6315 263.679 25.8252 263.292 25.9756C262.905 26.1214 262.456 26.1943 261.945 26.1943H260.708V25.2783ZM260.708 26.5635V25.6611H261.945C262.529 25.6611 263.025 25.7295 263.436 25.8662C263.85 26.0029 264.188 26.1921 264.447 26.4336C264.707 26.6706 264.896 26.9417 265.015 27.2471C265.138 27.5524 265.199 27.876 265.199 28.2178C265.199 28.6826 265.115 29.0973 264.946 29.4619C264.782 29.8219 264.548 30.1273 264.242 30.3779C263.937 30.6286 263.579 30.8177 263.169 30.9453C262.763 31.0729 262.321 31.1367 261.843 31.1367C261.414 31.1367 261.004 31.0775 260.612 30.959C260.22 30.8405 259.869 30.665 259.56 30.4326C259.25 30.1956 259.004 29.9017 258.821 29.5508C258.644 29.1953 258.555 28.7852 258.555 28.3203H260.202C260.202 28.6165 260.271 28.8786 260.407 29.1064C260.549 29.3298 260.744 29.5052 260.995 29.6328C261.25 29.7604 261.542 29.8242 261.87 29.8242C262.216 29.8242 262.515 29.7627 262.766 29.6396C263.016 29.5166 263.208 29.3343 263.34 29.0928C263.477 28.8512 263.545 28.5596 263.545 28.2178C263.545 27.8304 263.47 27.516 263.319 27.2744C263.169 27.0329 262.955 26.8551 262.677 26.7412C262.399 26.6227 262.071 26.5635 261.692 26.5635H260.708Z" fill="white"/>
<path d="M257.185 54.143C254.507 54.143 252.726 52.219 252.726 49.307C252.726 46.408 254.559 44.445 257.25 44.445C259.369 44.445 260.994 45.706 261.345 47.63H259.98C259.629 46.408 258.576 45.667 257.211 45.667C255.313 45.667 254.065 47.097 254.065 49.294C254.065 51.491 255.313 52.921 257.211 52.921C258.589 52.921 259.681 52.18 260.032 51.023H261.384C260.981 52.895 259.304 54.143 257.185 54.143ZM262.452 50.815C262.452 48.852 263.856 47.474 265.767 47.474C267.665 47.474 269.069 48.852 269.069 50.815C269.069 52.778 267.665 54.156 265.767 54.156C263.856 54.156 262.452 52.778 262.452 50.815ZM263.687 50.815C263.687 52.141 264.532 53.064 265.767 53.064C266.989 53.064 267.847 52.141 267.847 50.815C267.847 49.489 266.989 48.566 265.767 48.566C264.532 48.566 263.687 49.489 263.687 50.815ZM271.773 54H270.551V47.643H271.656L271.786 48.618C272.189 47.89 272.995 47.461 273.892 47.461C275.569 47.461 276.336 48.488 276.336 50.113V54H275.114V50.386C275.114 49.099 274.516 48.579 273.58 48.579C272.436 48.579 271.773 49.398 271.773 50.633V54ZM282.462 54V48.67H279.641V54H278.419V48.67H277.483V47.643H278.419V46.629C278.419 45.069 279.264 44.432 280.369 44.432C280.603 44.432 280.889 44.445 281.123 44.484V45.537H280.577C279.836 45.537 279.641 45.94 279.641 46.629V47.643H283.684V54H282.462ZM283.073 46.083C282.631 46.083 282.293 45.745 282.293 45.303C282.293 44.861 282.631 44.523 283.073 44.523C283.502 44.523 283.84 44.861 283.84 45.303C283.84 45.745 283.502 46.083 283.073 46.083ZM289.191 47.591V48.709H288.645C287.488 48.709 286.773 49.411 286.773 50.633V54H285.551V47.656H286.695L286.773 48.618C287.033 47.955 287.67 47.513 288.541 47.513C288.762 47.513 288.944 47.539 289.191 47.591ZM291.689 54H290.467V47.643H291.559L291.676 48.475C292.001 47.877 292.677 47.461 293.574 47.461C294.562 47.461 295.264 47.955 295.589 48.748C295.888 47.955 296.655 47.461 297.643 47.461C299.099 47.461 299.983 48.371 299.983 49.84V54H298.787V50.139C298.787 49.138 298.228 48.566 297.37 48.566C296.447 48.566 295.836 49.216 295.836 50.23V54H294.627V50.126C294.627 49.125 294.081 48.579 293.223 48.579C292.3 48.579 291.689 49.216 291.689 50.23V54ZM308.806 54H305.699V44.601H308.754C311.562 44.601 313.46 46.499 313.46 49.307C313.46 52.102 311.588 54 308.806 54ZM308.663 45.771H306.973V52.817H308.715C310.808 52.817 312.134 51.465 312.134 49.307C312.134 47.123 310.808 45.771 308.663 45.771ZM317.746 54.156C315.874 54.156 314.587 52.804 314.587 50.828C314.587 48.839 315.848 47.461 317.694 47.461C319.501 47.461 320.684 48.709 320.684 50.594V51.049L315.77 51.062C315.861 52.401 316.563 53.142 317.772 53.142C318.721 53.142 319.345 52.752 319.553 52.024H320.697C320.385 53.389 319.319 54.156 317.746 54.156ZM317.694 48.488C316.628 48.488 315.952 49.125 315.796 50.243H319.462C319.462 49.19 318.773 48.488 317.694 48.488ZM323.427 54H322.205V44.432H323.427V54ZM325.954 46.135C325.512 46.135 325.148 45.771 325.148 45.329C325.148 44.874 325.512 44.523 325.954 44.523C326.396 44.523 326.76 44.874 326.76 45.329C326.76 45.771 326.396 46.135 325.954 46.135ZM325.356 54V47.643H326.578V54H325.356ZM330.263 54L327.702 47.643H329.002L330.393 51.192C330.614 51.79 330.796 52.323 330.9 52.713C331.004 52.297 331.212 51.751 331.433 51.192L332.85 47.643H334.124L331.472 54H330.263ZM337.677 54.156C335.805 54.156 334.518 52.804 334.518 50.828C334.518 48.839 335.779 47.461 337.625 47.461C339.432 47.461 340.615 48.709 340.615 50.594V51.049L335.701 51.062C335.792 52.401 336.494 53.142 337.703 53.142C338.652 53.142 339.276 52.752 339.484 52.024H340.628C340.316 53.389 339.25 54.156 337.677 54.156ZM337.625 48.488C336.559 48.488 335.883 49.125 335.727 50.243H339.393C339.393 49.19 338.704 48.488 337.625 48.488ZM345.75 47.591V48.709H345.204C344.047 48.709 343.332 49.411 343.332 50.633V54H342.11V47.656H343.254L343.332 48.618C343.592 47.955 344.229 47.513 345.1 47.513C345.321 47.513 345.503 47.539 345.75 47.591ZM346.606 56.847V55.846H347.425C348.01 55.846 348.478 55.755 348.777 54.949L348.998 54.338L346.437 47.643H347.724L349.57 52.765L351.455 47.643H352.716L349.713 55.43C349.284 56.522 348.647 56.977 347.672 56.977C347.269 56.977 346.931 56.925 346.606 56.847Z" fill="white"/>
</svg>
