<svg width="22" height="22" viewBox="0 0 22 22" fill="none" xmlns="http://www.w3.org/2000/svg">
<path d="M13.75 7.5625V5.84375C13.75 5.38791 13.5689 4.95074 13.2466 4.62841C12.9243 4.30608 12.4871 4.125 12.0312 4.125H3.78125C3.32541 4.125 2.88824 4.30608 2.56591 4.62841C2.24358 4.95074 2.0625 5.38791 2.0625 5.84375V16.1562C2.0625 16.6121 2.24358 17.0493 2.56591 17.3716C2.88824 17.6939 3.32541 17.875 3.78125 17.875H12.0312C12.4871 17.875 12.9243 17.6939 13.2466 17.3716C13.5689 17.0493 13.75 16.6121 13.75 16.1562V14.4375M16.5 7.5625L19.9375 11L16.5 14.4375M8.20703 11H19.9375" stroke="#EF4770" stroke-width="1.5" stroke-linecap="round" stroke-linejoin="round"/>
</svg>
