<svg width="24" height="24" viewBox="0 0 24 24" fill="none" xmlns="http://www.w3.org/2000/svg">
<g clip-path="url(#clip0_2112_9784)">
<path d="M21 12.0331C21 7.04424 16.9706 3 12 3C7.02943 3 3 7.04424 3 12.0331C3 16.2694 5.90573 19.824 9.82583 20.8001V14.7934H7.96993V12.0331H9.82583V10.8436C9.82583 7.76908 11.2121 6.344 14.2196 6.344C14.7897 6.344 15.7735 6.45621 16.176 6.56842V9.07072C15.9636 9.04832 15.5947 9.03706 15.1363 9.03706C13.6605 9.03706 13.0903 9.59814 13.0903 11.0568V12.0331H16.0301L15.525 14.7934H13.0903V21C17.5466 20.4598 21 16.6514 21 12.0331Z" fill="#111827"/>
</g>
<defs>
<clipPath id="clip0_2112_9784">
<rect width="18" height="18" fill="white" transform="translate(3 3)"/>
</clipPath>
</defs>
</svg>
