<svg width="40" height="40" viewBox="0 0 40 40" fill="none" xmlns="http://www.w3.org/2000/svg">
<rect width="40" height="40" rx="20" fill="#FC5C2C"/>
<path d="M23.0149 15.3012V15.3022C22.98 15.6318 22.6988 15.8897 22.3584 15.8897C22.2605 15.8897 22.1665 15.8684 22.0821 15.8296L20.2602 14.9163C20.1769 14.8756 20.0867 14.8543 19.9965 14.8543C19.9073 14.8543 19.8171 14.8746 19.7347 14.9163L17.8818 15.8442C17.8062 15.8732 17.7248 15.8897 17.6385 15.8897C17.2768 15.8897 16.983 15.5979 16.9792 15.2363L16.9821 11.1711H23.0207L23.0149 15.3012ZM16.5312 24.3264H13.8542V23.5498L16.5312 23.5488V24.3264ZM26.0391 22.3243C25.2741 22.3243 24.6545 22.9438 24.6545 23.7088C24.6545 24.4727 25.2741 25.0932 26.0391 25.0932C26.8041 25.0932 27.4237 24.4727 27.4237 23.7088C27.4237 22.9438 26.8041 22.3243 26.0401 22.3243H26.0391ZM13.2666 22.3786H13.2657C13.1115 22.3786 12.9641 22.4407 12.8546 22.5492C12.745 22.6598 12.683 22.8081 12.683 22.9632V24.912C12.683 25.0671 12.745 25.2164 12.8546 25.326C12.9651 25.4355 13.1135 25.4976 13.2686 25.4976L17.117 25.4966C17.4398 25.4966 17.7026 25.2348 17.7026 24.911V22.9642C17.7026 22.6404 17.4398 22.3786 17.117 22.3786L13.2666 22.3786ZM13.2744 26.4428H13.2676C12.9447 26.4418 12.6829 26.7036 12.6829 27.0265C12.6829 27.3503 12.9457 27.6121 13.2686 27.6121H17.1169C17.4398 27.6121 17.7026 27.3503 17.7026 27.0265C17.7026 26.7036 17.4398 26.4418 17.1169 26.4418L13.2744 26.4428ZM26.0546 20.9205H26.0633C27.5924 20.9331 28.8277 22.1769 28.8277 23.7087C28.8277 24.2225 28.69 24.7024 28.4496 25.1145L26.0392 28.346L23.6287 25.1145C23.3893 24.7034 23.2506 24.2225 23.2506 23.7087C23.2506 22.1681 24.4994 20.9205 26.0381 20.9205H26.0546ZM26.0381 19.7493C23.8507 19.7493 22.0783 21.5215 22.0783 23.7087C22.0783 24.4397 22.2771 25.1271 22.6222 25.7156C22.6455 25.7534 22.6601 25.7738 22.6601 25.7738L25.6717 29.8147C25.7618 29.9349 25.8995 29.9989 26.0391 29.9989C26.1788 29.9989 26.3165 29.9349 26.4066 29.8147L29.4182 25.7738C29.4328 25.7544 29.4561 25.7156 29.4561 25.7156C29.8022 25.1262 30 24.4397 30 23.7087C30 21.5215 28.2266 19.7493 26.0392 19.7493H26.0381ZM11.8277 10.0019C10.8183 10.0019 10 10.8211 10 11.8304V28.1676C10 29.1788 10.8193 29.9981 11.8306 29.9981L23.3756 30C23.6985 30 23.9613 29.7373 23.9613 29.4144C23.9613 29.0906 23.6985 28.8278 23.3756 28.8278H11.8306C11.4728 28.8269 11.1819 28.5428 11.1713 28.187V11.8111C11.1819 11.4553 11.4728 11.1712 11.8306 11.1712H15.8088L15.8039 15.25C15.8146 16.2516 16.6339 17.0611 17.6384 17.0611C17.9302 17.0611 18.2056 16.9923 18.4509 16.8711L19.9964 16.0974L21.5914 16.8934C21.8251 17.001 22.085 17.0611 22.3584 17.0611C23.357 17.0611 24.1686 16.2622 24.189 15.2694L24.1938 11.1712H28.1693C28.527 11.1712 28.8189 11.4553 28.8286 11.8111L28.8276 19.287C28.8276 19.6108 29.0904 19.8726 29.4132 19.8726C29.7371 19.8726 29.9999 19.6108 29.9999 19.287V11.8304C29.9999 10.8192 29.1805 10 28.1693 10L11.8277 10.0019Z" fill="white"/>
</svg>
