<svg width="24" height="24" viewBox="0 0 24 24" fill="none" xmlns="http://www.w3.org/2000/svg">
<path d="M12 3.0625C7.06418 3.0625 3.0625 7.06418 3.0625 12C3.0625 16.9358 7.06418 20.9375 12 20.9375C16.9358 20.9375 20.9375 16.9358 20.9375 12C20.9375 7.06418 16.9358 3.0625 12 3.0625Z" stroke="#9CA3AF" stroke-miterlimit="10"/>
<path d="M12 3.0625C9.50478 3.0625 7.15869 7.06418 7.15869 12C7.15869 16.9358 9.50478 20.9375 12 20.9375C14.4952 20.9375 16.8413 16.9358 16.8413 12C16.8413 7.06418 14.4952 3.0625 12 3.0625Z" stroke="#9CA3AF" stroke-miterlimit="10"/>
<path d="M6.0415 6.0415C7.68463 7.20811 9.75314 7.90377 12 7.90377C14.2468 7.90377 16.3153 7.20811 17.9585 6.0415M17.9585 17.9585C16.3153 16.7919 14.2468 16.0962 12 16.0962C9.75314 16.0962 7.68463 16.7919 6.0415 17.9585" stroke="#9CA3AF" stroke-linecap="round" stroke-linejoin="round"/>
<path d="M12 3.0625V20.9375M20.9375 12H3.0625" stroke="#9CA3AF" stroke-miterlimit="10"/>
</svg>
