<svg width="338" height="35" viewBox="0 0 338 35" fill="none" xmlns="http://www.w3.org/2000/svg">
<path d="M1 7.00005H337" stroke="#ECECEC" stroke-width="2" stroke-linecap="round"/>
<path fill-rule="evenodd" clip-rule="evenodd" d="M1 7H16H1Z" fill="#FC5C2C"/>
<path d="M1 7H16" stroke="#FC5C2C" stroke-width="2" stroke-linecap="round"/>
<circle cx="20.5657" cy="7.5" r="6.5" fill="#FC5C2C"/>
<circle cx="317.566" cy="6.5" r="6.5" fill="#E8E8E8"/>
<circle cx="168" cy="6.5" r="6.5" fill="#E8E8E8"/>
<path opacity="0.7" d="M3.52 31H2.176V20.878H3.52L7.006 29.39L10.492 20.878H11.864V31H10.52V26.996C10.52 25.106 10.534 24.42 10.604 23.706L7.65 31H6.362L3.422 23.734C3.492 24.224 3.52 25.26 3.52 26.674V31ZM16.1989 31.168C14.7289 31.168 13.8609 30.342 13.8609 29.096C13.8609 27.836 14.7989 27.052 16.4089 26.926L18.5649 26.758V26.562C18.5649 25.414 17.8789 25.008 16.9549 25.008C15.8489 25.008 15.2189 25.498 15.2189 26.324H14.0709C14.0709 24.896 15.2469 23.958 17.0109 23.958C18.7049 23.958 19.8529 24.854 19.8529 26.702V31H18.7329L18.5929 29.894C18.2429 30.678 17.3049 31.168 16.1989 31.168ZM16.5769 30.146C17.8229 30.146 18.5789 29.334 18.5789 28.046V27.682L16.8289 27.822C15.6669 27.934 15.1909 28.382 15.1909 29.054C15.1909 29.782 15.7229 30.146 16.5769 30.146ZM23.2194 31H21.9034V20.696H23.2194V27.374L26.2574 24.154H27.9094L25.2914 26.884L27.8954 31H26.3834L24.3814 27.836L23.2194 29.054V31ZM29.8288 22.53C29.3528 22.53 28.9608 22.138 28.9608 21.662C28.9608 21.172 29.3528 20.794 29.8288 20.794C30.3048 20.794 30.6968 21.172 30.6968 21.662C30.6968 22.138 30.3048 22.53 29.8288 22.53ZM29.1848 31V24.154H30.5008V31H29.1848ZM33.9274 31H32.6114V24.154H33.8014L33.9414 25.204C34.3754 24.42 35.2434 23.958 36.2094 23.958C38.0154 23.958 38.8414 25.064 38.8414 26.814V31H37.5254V27.108C37.5254 25.722 36.8814 25.162 35.8734 25.162C34.6414 25.162 33.9274 26.044 33.9274 27.374V31ZM40.4301 27.402C40.4301 25.47 41.6761 23.958 43.6641 23.958C44.7701 23.958 45.6241 24.462 46.0581 25.316L46.1561 24.154H47.3321V30.72C47.3321 32.876 46.0021 34.248 43.9021 34.248C42.0401 34.248 40.7661 33.198 40.5141 31.462H41.8301C41.9981 32.47 42.7541 33.058 43.9021 33.058C45.1901 33.058 46.0301 32.218 46.0301 30.916V29.544C45.5821 30.342 44.6861 30.818 43.6081 30.818C41.6621 30.818 40.4301 29.32 40.4301 27.402ZM41.7461 27.374C41.7461 28.662 42.5441 29.67 43.8321 29.67C45.1621 29.67 45.9741 28.718 45.9741 27.374C45.9741 26.058 45.1901 25.106 43.8461 25.106C42.5301 25.106 41.7461 26.114 41.7461 27.374Z" fill="#FC5C2C"/>
<path d="M149.04 27.318H146.226V31H145.218V20.976H149.04C150.972 20.976 152.19 22.236 152.19 24.126C152.19 25.946 150.958 27.318 149.04 27.318ZM148.9 21.886H146.226V26.408H148.844C150.3 26.408 151.14 25.484 151.14 24.112C151.14 22.726 150.286 21.886 148.9 21.886ZM155.48 31.168C154.038 31.168 153.184 30.356 153.184 29.166C153.184 27.92 154.136 27.136 155.718 27.01L157.958 26.828V26.604C157.958 25.274 157.16 24.854 156.166 24.854C154.99 24.854 154.29 25.386 154.29 26.296H153.408C153.408 24.924 154.528 24.042 156.194 24.042C157.762 24.042 158.91 24.826 158.91 26.618V31H158.098L157.972 29.81C157.552 30.664 156.628 31.168 155.48 31.168ZM155.704 30.384C157.132 30.384 157.958 29.39 157.958 27.92V27.556L155.956 27.71C154.682 27.822 154.164 28.382 154.164 29.138C154.164 29.964 154.78 30.384 155.704 30.384ZM160.573 27.626C160.573 25.498 161.875 24.042 163.849 24.042C165.417 24.042 166.565 24.952 166.831 26.352H165.865C165.613 25.414 164.801 24.896 163.863 24.896C162.491 24.896 161.525 25.946 161.525 27.612C161.525 29.222 162.421 30.3 163.793 30.3C164.801 30.3 165.613 29.74 165.879 28.872H166.859C166.537 30.258 165.333 31.168 163.793 31.168C161.875 31.168 160.573 29.754 160.573 27.626ZM169.53 31H168.564V20.794H169.53V27.724L172.89 24.224H174.108L171.504 26.926L174.122 31H173.002L170.846 27.612L169.53 28.97V31ZM175.952 22.362C175.56 22.362 175.238 22.04 175.238 21.648C175.238 21.256 175.56 20.92 175.952 20.92C176.344 20.92 176.68 21.256 176.68 21.648C176.68 22.04 176.344 22.362 175.952 22.362ZM175.476 31V24.224H176.442V31H175.476ZM179.622 31H178.656V24.224H179.496L179.636 25.4C180.084 24.532 180.98 24.042 181.96 24.042C183.822 24.042 184.592 25.148 184.592 26.856V31H183.626V27.066C183.626 25.484 182.912 24.924 181.792 24.924C180.406 24.924 179.622 25.932 179.622 27.458V31ZM186.256 27.416C186.256 25.568 187.446 24.042 189.434 24.042C190.61 24.042 191.506 24.588 191.94 25.582L192.038 24.224H192.878V30.79C192.878 32.806 191.59 34.122 189.602 34.122C187.866 34.122 186.648 33.142 186.382 31.504H187.348C187.558 32.596 188.398 33.24 189.616 33.24C191.002 33.24 191.926 32.302 191.926 30.888V29.278C191.464 30.23 190.526 30.79 189.364 30.79C187.432 30.79 186.256 29.264 186.256 27.416ZM187.222 27.402C187.222 28.788 188.076 29.922 189.504 29.922C190.974 29.922 191.842 28.858 191.842 27.402C191.842 25.96 191.002 24.896 189.518 24.896C188.062 24.896 187.222 26.03 187.222 27.402Z" fill="#6B7280"/>
<path d="M300.726 31H299.718V20.976H303.456C305.486 20.976 306.718 22.096 306.718 23.874C306.718 25.316 305.962 26.324 304.674 26.674L306.816 31H305.696L303.652 26.842H300.726V31ZM300.726 21.886V25.932H303.484C304.87 25.932 305.682 25.176 305.682 23.902C305.682 22.6 304.828 21.886 303.456 21.886H300.726ZM311.013 31.168C309.025 31.168 307.695 29.74 307.695 27.612C307.695 25.498 309.011 24.042 310.943 24.042C312.777 24.042 314.023 25.344 314.023 27.262V27.738H308.633C308.703 29.39 309.571 30.342 311.027 30.342C312.133 30.342 312.847 29.866 313.099 28.97H314.023C313.659 30.398 312.609 31.168 311.013 31.168ZM310.943 24.868C309.669 24.868 308.829 25.708 308.661 27.038H313.057C313.057 25.736 312.217 24.868 310.943 24.868ZM317.645 31.168C316.203 31.168 315.349 30.356 315.349 29.166C315.349 27.92 316.301 27.136 317.883 27.01L320.123 26.828V26.604C320.123 25.274 319.325 24.854 318.331 24.854C317.155 24.854 316.455 25.386 316.455 26.296H315.573C315.573 24.924 316.693 24.042 318.359 24.042C319.927 24.042 321.075 24.826 321.075 26.618V31H320.263L320.137 29.81C319.717 30.664 318.793 31.168 317.645 31.168ZM317.869 30.384C319.297 30.384 320.123 29.39 320.123 27.92V27.556L318.121 27.71C316.847 27.822 316.329 28.382 316.329 29.138C316.329 29.964 316.945 30.384 317.869 30.384ZM325.873 31.168C323.899 31.168 322.737 29.656 322.737 27.626C322.737 25.582 323.899 24.042 325.915 24.042C327.035 24.042 327.931 24.532 328.407 25.512V20.794H329.373V31H328.533L328.435 29.614C327.959 30.664 327.007 31.168 325.873 31.168ZM326.041 30.286C327.525 30.286 328.393 29.166 328.393 27.598C328.393 26.044 327.525 24.91 326.041 24.91C324.571 24.91 323.717 26.044 323.717 27.598C323.717 29.166 324.571 30.286 326.041 30.286ZM330.903 33.954V33.156H331.645C332.233 33.156 332.821 33.114 333.157 32.204L333.451 31.406L330.707 24.224H331.729L333.913 30.132L336.055 24.224H337.049L333.941 32.554C333.549 33.618 332.891 34.052 331.925 34.052C331.519 34.052 331.211 34.024 330.903 33.954Z" fill="#6B7280"/>
</svg>
