<svg width="24" height="24" viewBox="0 0 24 24" fill="none" xmlns="http://www.w3.org/2000/svg">
<path d="M21.8022 4.65033L2.3698 5.82069C2.33266 5.82289 2.29638 5.83245 2.26306 5.84884C2.22973 5.86522 2.20002 5.88811 2.17564 5.91616C2.15126 5.94422 2.13268 5.9769 2.12099 6.01232C2.1093 6.04773 2.10472 6.08519 2.10751 6.12252C2.10948 6.16776 2.12236 6.21194 2.14505 6.25124C2.16774 6.29054 2.19956 6.32378 2.23776 6.34811L10.4473 11.5205L10.8228 21.2091C10.8248 21.2543 10.8377 21.2985 10.8604 21.3378C10.8831 21.3771 10.9149 21.4104 10.9531 21.4347C10.984 21.4558 11.0187 21.4705 11.0553 21.4781C11.0918 21.4857 11.1294 21.486 11.1658 21.4789C11.2023 21.4718 11.237 21.4575 11.2679 21.4368C11.2987 21.4162 11.3251 21.3895 11.3456 21.3585L22.0754 5.11469C22.1079 5.06871 22.1265 5.01419 22.129 4.95762C22.1314 4.90104 22.1177 4.84481 22.0893 4.79563C22.0609 4.74645 22.0191 4.70639 21.9688 4.68024C21.9186 4.65408 21.8621 4.64294 21.806 4.64813L21.8022 4.65033Z" fill="#FC5C2C"/>
</svg>
