<svg width="35" height="35" viewBox="0 0 35 35" fill="none" xmlns="http://www.w3.org/2000/svg">
<rect x="0.5" y="0.5" width="34" height="34" rx="17" stroke="white"/>
<g clip-path="url(#clip0_1049_11641)">
<path d="M23.0122 21.8141H11.9381V23.1603H23.0122V21.8141ZM22.4784 15.1986L22.788 17.9308L24.1256 17.7793L23.8161 15.0471L22.4784 15.1986ZM12.1623 17.9308L12.4718 15.1986L11.1342 15.0471L10.8247 17.7793L12.1623 17.9308ZM11.2174 20.1231C11.7421 19.5054 12.0706 18.7408 12.1623 17.9308L10.8247 17.7793C10.7627 18.3271 10.5408 18.8403 10.1915 19.2514L11.2174 20.1231ZM22.788 17.9308C22.8798 18.7408 23.2082 19.5054 23.7329 20.1231L24.7588 19.2514C24.4095 18.8403 24.1876 18.3271 24.1256 17.7793L22.788 17.9308ZM11.9381 21.8141C11.1422 21.8141 10.636 20.8073 11.2174 20.1231L10.1915 19.2514C8.91801 20.7504 9.91719 23.1603 11.9381 23.1603V21.8141ZM23.0122 23.1603C25.0331 23.1603 26.0323 20.7504 24.7588 19.2514L23.7329 20.1231C24.3142 20.8073 23.8081 21.8141 23.0122 21.8141V23.1603ZM23.8161 15.0471C23.4434 11.7581 20.7309 9.25 17.4751 9.25V10.5962C20.0151 10.5962 22.1794 12.5588 22.4784 15.1986L23.8161 15.0471ZM12.4718 15.1986C12.7709 12.5588 14.9352 10.5962 17.4751 10.5962V9.25C14.2194 9.25 11.5068 11.7581 11.1342 15.0471L12.4718 15.1986Z" fill="white"/>
<path d="M20.7976 24.5182C20.9281 24.1701 20.7517 23.7823 20.4036 23.6518C20.0555 23.5213 19.6676 23.6977 19.5371 24.0458L20.7976 24.5182ZM15.413 24.0458C15.2826 23.6977 14.8946 23.5213 14.5466 23.6518C14.1985 23.7823 14.022 24.1701 14.1525 24.5182L15.413 24.0458ZM19.5371 24.0458C19.2475 24.8186 18.4484 25.4038 17.4751 25.4038V26.75C18.9877 26.75 20.3034 25.8368 20.7976 24.5182L19.5371 24.0458ZM17.4751 25.4038C16.5017 25.4038 15.7026 24.8186 15.413 24.0458L14.1525 24.5182C14.6467 25.8368 15.9624 26.75 17.4751 26.75V25.4038Z" fill="white"/>
<circle cx="21.875" cy="11" r="3" fill="white" stroke="white"/>
</g>
<defs>
<clipPath id="clip0_1049_11641">
<rect width="21" height="21" fill="white" transform="translate(7 7.5)"/>
</clipPath>
</defs>
</svg>
