<svg width="30" height="30" viewBox="0 0 30 30" fill="none" xmlns="http://www.w3.org/2000/svg">
<rect width="30" height="30" rx="7" fill="#FC5C2C"/>
<path d="M15 8.41663C13.6854 8.41816 12.4251 8.95592 11.4955 9.91194C10.566 10.868 10.0431 12.1642 10.0416 13.5162C10.0416 15.3924 11.5162 17.5005 12.9424 19.5391C13.6314 20.5241 14.344 21.5427 14.8588 22.4978C14.8728 22.5237 14.8932 22.5453 14.9181 22.5603C14.9429 22.5754 14.9712 22.5833 15 22.5833C15.0288 22.5833 15.057 22.5754 15.0819 22.5603C15.1067 22.5453 15.1271 22.5237 15.1411 22.4978C15.6559 21.5427 16.3685 20.5241 17.0575 19.5391C18.4837 17.5005 19.9583 15.3924 19.9583 13.5162C19.9568 12.1642 19.4339 10.868 18.5044 9.91194C17.5748 8.95592 16.3145 8.41816 15 8.41663ZM15 15.7161C14.5769 15.7161 14.1633 15.5871 13.8116 15.3454C13.4598 15.1036 13.1857 14.76 13.0238 14.3581C12.8619 13.9561 12.8195 13.5137 12.902 13.087C12.9846 12.6602 13.1883 12.2682 13.4874 11.9606C13.7866 11.6529 14.1677 11.4434 14.5827 11.3585C14.9976 11.2736 15.4277 11.3172 15.8185 11.4837C16.2094 11.6502 16.5435 11.9322 16.7785 12.2939C17.0135 12.6557 17.139 13.0811 17.139 13.5162C17.1384 14.0994 16.9128 14.6586 16.5118 15.0711C16.1108 15.4835 15.5671 15.7155 15 15.7161Z" fill="white"/>
</svg>
