<svg width="338" height="52" viewBox="0 0 338 52" fill="none" xmlns="http://www.w3.org/2000/svg">
<path d="M1 17H337" stroke="#ECECEC" stroke-width="2" stroke-linecap="round"/>
<path fill-rule="evenodd" clip-rule="evenodd" d="M1 17H160H1Z" fill="#FC5C2C"/>
<path d="M1 17H160" stroke="#FC5C2C" stroke-width="2" stroke-linecap="round"/>
<circle cx="21.0657" cy="17.5" r="6" fill="#FC5C2C" stroke="#FC5C2C"/>
<circle cx="169" cy="15.5" r="15" fill="#FC5C2C" stroke="#FC5C2C"/>
<g clip-path="url(#clip0_920_8361)">
<path d="M169.227 17.7838L163.183 14.5568L161.624 16.4398C163.808 17.6152 165.834 18.7254 168.019 19.9012L169.227 17.7838ZM173.95 9.06615L173.972 13.5082C173.973 13.7401 173.83 13.9394 173.626 14.0232L173.626 14.0243L169.835 15.7387C169.69 15.7974 169.424 15.8063 169.283 15.7458L165.788 14.0966L165.789 14.0955C165.587 14.0092 165.445 13.8042 165.446 13.5651L165.467 9.17961C165.451 8.90867 165.56 8.64525 165.822 8.53787L169.469 7.04253C169.617 6.98168 169.777 6.98848 169.913 7.0479L173.554 8.38827C173.772 8.46844 173.909 8.6678 173.919 8.88362C173.94 8.94231 173.95 9.00423 173.95 9.06615ZM169.189 14.8876V10.719L165.985 9.43408L165.924 13.4649L169.189 14.8876ZM169.948 10.7197V14.884L173.417 13.4194L173.398 9.36214L169.948 10.7197ZM164.49 13.6245L163.594 14.0765L169.617 17.2991L175.653 14.0704L174.928 13.6871L174.925 12.9842L175.834 13.462L177.536 11.8199L174.912 10.375L174.909 9.63129L178.377 11.4978C178.397 11.5089 178.416 11.5232 178.434 11.5411C178.523 11.6338 178.522 11.7827 178.431 11.874L176.357 13.9477L178.365 16.3954C178.447 16.4949 178.434 16.6438 178.337 16.7272C178.321 16.7397 178.306 16.7505 178.289 16.7583L176.486 17.729V21.3675C176.486 21.4652 176.427 21.5497 176.343 21.5851L169.823 24.9545C169.669 25.0286 169.61 25.0121 169.444 24.9022L162.912 21.5776C162.874 21.5581 162.842 21.5281 162.819 21.491C162.797 21.4539 162.785 21.4111 162.785 21.3675L162.783 17.7469L160.947 16.7583C160.93 16.7505 160.915 16.7397 160.899 16.7272C160.802 16.6438 160.789 16.4949 160.871 16.3954L162.827 14.0117L160.557 11.8213C160.473 11.724 160.483 11.5755 160.579 11.4896C160.593 11.4774 160.608 11.4667 160.623 11.4584L164.51 9.21969L164.507 9.97631L161.391 11.7809L163.242 13.5325L164.493 12.9015L164.49 13.6245ZM176.087 14.5808L170.054 17.8013L171.229 19.9237L177.576 16.4187L176.087 14.5808Z" fill="white"/>
</g>
<circle cx="318.066" cy="16.5" r="6.5" fill="#E8E8E8"/>
<path opacity="0.7" d="M3.212 48H2.218V37.976H3.212L6.866 46.81L10.52 37.976H11.528V48H10.534V43.24C10.534 41.49 10.562 40.72 10.618 40.034L7.356 48H6.39L3.128 40.076C3.184 40.454 3.212 41.56 3.212 43.086V48ZM15.8981 48.168C14.4561 48.168 13.6021 47.356 13.6021 46.166C13.6021 44.92 14.5541 44.136 16.1361 44.01L18.3761 43.828V43.604C18.3761 42.274 17.5781 41.854 16.5841 41.854C15.4081 41.854 14.7081 42.386 14.7081 43.296H13.8261C13.8261 41.924 14.9461 41.042 16.6121 41.042C18.1801 41.042 19.3281 41.826 19.3281 43.618V48H18.5161L18.3901 46.81C17.9701 47.664 17.0461 48.168 15.8981 48.168ZM16.1221 47.384C17.5501 47.384 18.3761 46.39 18.3761 44.92V44.556L16.3741 44.71C15.1001 44.822 14.5821 45.382 14.5821 46.138C14.5821 46.964 15.1981 47.384 16.1221 47.384ZM22.4746 48H21.5086V37.794H22.4746V44.724L25.8346 41.224H27.0526L24.4486 43.926L27.0666 48H25.9466L23.7906 44.612L22.4746 45.97V48ZM28.8965 39.362C28.5045 39.362 28.1825 39.04 28.1825 38.648C28.1825 38.256 28.5045 37.92 28.8965 37.92C29.2885 37.92 29.6245 38.256 29.6245 38.648C29.6245 39.04 29.2885 39.362 28.8965 39.362ZM28.4205 48V41.224H29.3865V48H28.4205ZM32.567 48H31.601V41.224H32.441L32.581 42.4C33.029 41.532 33.925 41.042 34.905 41.042C36.767 41.042 37.537 42.148 37.537 43.856V48H36.571V44.066C36.571 42.484 35.857 41.924 34.737 41.924C33.351 41.924 32.567 42.932 32.567 44.458V48ZM39.2003 44.416C39.2003 42.568 40.3903 41.042 42.3783 41.042C43.5543 41.042 44.4503 41.588 44.8843 42.582L44.9823 41.224H45.8223V47.79C45.8223 49.806 44.5343 51.122 42.5463 51.122C40.8103 51.122 39.5923 50.142 39.3263 48.504H40.2923C40.5023 49.596 41.3423 50.24 42.5603 50.24C43.9463 50.24 44.8703 49.302 44.8703 47.888V46.278C44.4083 47.23 43.4703 47.79 42.3083 47.79C40.3763 47.79 39.2003 46.264 39.2003 44.416ZM40.1663 44.402C40.1663 45.788 41.0203 46.922 42.4483 46.922C43.9183 46.922 44.7863 45.858 44.7863 44.402C44.7863 42.96 43.9463 41.896 42.4623 41.896C41.0063 41.896 40.1663 43.03 40.1663 44.402Z" fill="#FC5C2C"/>
<path d="M149.11 44.388H146.548V48H145.176V37.878H149.11C151.098 37.878 152.372 39.18 152.372 41.126C152.372 43.016 151.084 44.388 149.11 44.388ZM148.872 39.11H146.548V43.156H148.816C150.174 43.156 150.93 42.358 150.93 41.112C150.93 39.838 150.16 39.11 148.872 39.11ZM155.631 48.168C154.161 48.168 153.293 47.342 153.293 46.096C153.293 44.836 154.231 44.052 155.841 43.926L157.997 43.758V43.562C157.997 42.414 157.311 42.008 156.387 42.008C155.281 42.008 154.651 42.498 154.651 43.324H153.503C153.503 41.896 154.679 40.958 156.443 40.958C158.137 40.958 159.285 41.854 159.285 43.702V48H158.165L158.025 46.894C157.675 47.678 156.737 48.168 155.631 48.168ZM156.009 47.146C157.255 47.146 158.011 46.334 158.011 45.046V44.682L156.261 44.822C155.099 44.934 154.623 45.382 154.623 46.054C154.623 46.782 155.155 47.146 156.009 47.146ZM160.859 44.584C160.859 42.442 162.217 40.958 164.219 40.958C165.941 40.958 167.145 41.938 167.383 43.464H166.067C165.843 42.596 165.143 42.134 164.261 42.134C163.015 42.134 162.161 43.086 162.161 44.57C162.161 46.04 162.959 46.992 164.205 46.992C165.143 46.992 165.843 46.502 166.081 45.69H167.397C167.131 47.174 165.857 48.168 164.205 48.168C162.189 48.168 160.859 46.74 160.859 44.584ZM170.33 48H169.014V37.696H170.33V44.374L173.368 41.154H175.02L172.402 43.884L175.006 48H173.494L171.492 44.836L170.33 46.054V48ZM176.939 39.53C176.463 39.53 176.071 39.138 176.071 38.662C176.071 38.172 176.463 37.794 176.939 37.794C177.415 37.794 177.807 38.172 177.807 38.662C177.807 39.138 177.415 39.53 176.939 39.53ZM176.295 48V41.154H177.611V48H176.295ZM181.038 48H179.722V41.154H180.912L181.052 42.204C181.486 41.42 182.354 40.958 183.32 40.958C185.126 40.958 185.952 42.064 185.952 43.814V48H184.636V44.108C184.636 42.722 183.992 42.162 182.984 42.162C181.752 42.162 181.038 43.044 181.038 44.374V48ZM187.54 44.402C187.54 42.47 188.786 40.958 190.774 40.958C191.88 40.958 192.734 41.462 193.168 42.316L193.266 41.154H194.442V47.72C194.442 49.876 193.112 51.248 191.012 51.248C189.15 51.248 187.876 50.198 187.624 48.462H188.94C189.108 49.47 189.864 50.058 191.012 50.058C192.3 50.058 193.14 49.218 193.14 47.916V46.544C192.692 47.342 191.796 47.818 190.718 47.818C188.772 47.818 187.54 46.32 187.54 44.402ZM188.856 44.374C188.856 45.662 189.654 46.67 190.942 46.67C192.272 46.67 193.084 45.718 193.084 44.374C193.084 43.058 192.3 42.106 190.956 42.106C189.64 42.106 188.856 43.114 188.856 44.374Z" fill="#FC5C2C"/>
<path d="M300.726 48H299.718V37.976H303.456C305.486 37.976 306.718 39.096 306.718 40.874C306.718 42.316 305.962 43.324 304.674 43.674L306.816 48H305.696L303.652 43.842H300.726V48ZM300.726 38.886V42.932H303.484C304.87 42.932 305.682 42.176 305.682 40.902C305.682 39.6 304.828 38.886 303.456 38.886H300.726ZM311.013 48.168C309.025 48.168 307.695 46.74 307.695 44.612C307.695 42.498 309.011 41.042 310.943 41.042C312.777 41.042 314.023 42.344 314.023 44.262V44.738H308.633C308.703 46.39 309.571 47.342 311.027 47.342C312.133 47.342 312.847 46.866 313.099 45.97H314.023C313.659 47.398 312.609 48.168 311.013 48.168ZM310.943 41.868C309.669 41.868 308.829 42.708 308.661 44.038H313.057C313.057 42.736 312.217 41.868 310.943 41.868ZM317.645 48.168C316.203 48.168 315.349 47.356 315.349 46.166C315.349 44.92 316.301 44.136 317.883 44.01L320.123 43.828V43.604C320.123 42.274 319.325 41.854 318.331 41.854C317.155 41.854 316.455 42.386 316.455 43.296H315.573C315.573 41.924 316.693 41.042 318.359 41.042C319.927 41.042 321.075 41.826 321.075 43.618V48H320.263L320.137 46.81C319.717 47.664 318.793 48.168 317.645 48.168ZM317.869 47.384C319.297 47.384 320.123 46.39 320.123 44.92V44.556L318.121 44.71C316.847 44.822 316.329 45.382 316.329 46.138C316.329 46.964 316.945 47.384 317.869 47.384ZM325.873 48.168C323.899 48.168 322.737 46.656 322.737 44.626C322.737 42.582 323.899 41.042 325.915 41.042C327.035 41.042 327.931 41.532 328.407 42.512V37.794H329.373V48H328.533L328.435 46.614C327.959 47.664 327.007 48.168 325.873 48.168ZM326.041 47.286C327.525 47.286 328.393 46.166 328.393 44.598C328.393 43.044 327.525 41.91 326.041 41.91C324.571 41.91 323.717 43.044 323.717 44.598C323.717 46.166 324.571 47.286 326.041 47.286ZM330.903 50.954V50.156H331.645C332.233 50.156 332.821 50.114 333.157 49.204L333.451 48.406L330.707 41.224H331.729L333.913 47.132L336.055 41.224H337.049L333.941 49.554C333.549 50.618 332.891 51.052 331.925 51.052C331.519 51.052 331.211 51.024 330.903 50.954Z" fill="#6B7280"/>
<defs>
<clipPath id="clip0_920_8361">
<rect width="18" height="18" fill="white" transform="translate(160.5 7)"/>
</clipPath>
</defs>
</svg>
