<svg width="50" height="50" viewBox="0 0 50 50" fill="none" xmlns="http://www.w3.org/2000/svg">
<rect width="50" height="50" rx="25" fill="white"/>
<path d="M18.3337 12.4971C15.112 12.4971 12.5004 15.1087 12.5004 18.3304V19.1637C12.5004 19.624 12.8735 19.9971 13.3337 19.9971C13.7939 19.9971 14.167 19.624 14.167 19.1637V18.3304C14.167 16.0292 16.0325 14.1637 18.3337 14.1637H19.167C19.6273 14.1637 20.0004 13.7906 20.0004 13.3304C20.0004 12.8702 19.6273 12.4971 19.167 12.4971H18.3337Z" fill="#FC5C2C"/>
<path d="M30.8338 12.4971C30.3736 12.4971 30.0005 12.8702 30.0005 13.3304C30.0005 13.7906 30.3736 14.1637 30.8338 14.1637H31.6672C33.9683 14.1637 35.8338 16.0292 35.8338 18.3304V19.1637C35.8338 19.624 36.2069 19.9971 36.6672 19.9971C37.1274 19.9971 37.5005 19.624 37.5005 19.1637V18.3304C37.5005 15.1087 34.8888 12.4971 31.6672 12.4971H30.8338Z" fill="#FC5C2C"/>
<path d="M14.167 30.8304C14.167 30.3702 13.7939 29.9971 13.3337 29.9971C12.8735 29.9971 12.5004 30.3702 12.5004 30.8304V31.6637C12.5004 34.8854 15.112 37.4971 18.3337 37.4971H19.167C19.6273 37.4971 20.0004 37.124 20.0004 36.6637C20.0004 36.2035 19.6273 35.8304 19.167 35.8304H18.3337C16.0325 35.8304 14.167 33.9649 14.167 31.6637V30.8304Z" fill="#FC5C2C"/>
<path d="M37.5005 30.8304C37.5005 30.3702 37.1274 29.9971 36.6672 29.9971C36.2069 29.9971 35.8338 30.3702 35.8338 30.8304V31.6637C35.8338 33.9649 33.9683 35.8304 31.6672 35.8304H30.8338C30.3736 35.8304 30.0005 36.2035 30.0005 36.6637C30.0005 37.124 30.3736 37.4971 30.8338 37.4971H31.6672C34.8888 37.4971 37.5005 34.8854 37.5005 31.6637V30.8304Z" fill="#FC5C2C"/>
<path d="M19.5837 20.8304C20.0439 20.8304 20.417 20.4573 20.417 19.997C20.417 19.5368 20.0439 19.1637 19.5837 19.1637H17.0837C16.6234 19.1637 16.2504 19.5368 16.2504 19.997C16.2504 20.4573 16.6234 20.8304 17.0837 20.8304H19.5837Z" fill="#FC5C2C"/>
<path d="M33.7504 19.997C33.7504 20.4573 33.3773 20.8304 32.9171 20.8304H22.9171C22.4568 20.8304 22.0837 20.4573 22.0837 19.997C22.0837 19.5368 22.4568 19.1637 22.9171 19.1637H32.9171C33.3773 19.1637 33.7504 19.5368 33.7504 19.997Z" fill="#FC5C2C"/>
<path d="M24.167 24.1637C24.6273 24.1637 25.0004 23.7907 25.0004 23.3304C25.0004 22.8702 24.6273 22.4971 24.167 22.4971H17.0837C16.6234 22.4971 16.2504 22.8702 16.2504 23.3304C16.2504 23.7907 16.6234 24.1637 17.0837 24.1637H24.167Z" fill="#FC5C2C"/>
<path d="M33.7504 23.3304C33.7504 23.7907 33.3774 24.1637 32.9171 24.1637H27.5004C27.0402 24.1637 26.6671 23.7907 26.6671 23.3304C26.6671 22.8702 27.0402 22.4971 27.5004 22.4971H32.9171C33.3774 22.4971 33.7504 22.8702 33.7504 23.3304Z" fill="#FC5C2C"/>
<path d="M27.5004 27.4971C27.9606 27.4971 28.3337 27.124 28.3337 26.6638C28.3337 26.2035 27.9606 25.8304 27.5004 25.8304H17.0837C16.6234 25.8304 16.2504 26.2035 16.2504 26.6638C16.2504 27.124 16.6234 27.4971 17.0837 27.4971H27.5004Z" fill="#FC5C2C"/>
<path d="M33.3338 26.6638C33.3338 27.124 32.9607 27.4971 32.5005 27.4971H30.8338C30.3736 27.4971 30.0005 27.124 30.0005 26.6638C30.0005 26.2035 30.3736 25.8304 30.8338 25.8304H32.5005C32.9607 25.8304 33.3338 26.2035 33.3338 26.6638Z" fill="#FC5C2C"/>
<path d="M24.5837 30.8304C25.0439 30.8304 25.417 30.4573 25.417 29.997C25.417 29.5368 25.0439 29.1637 24.5837 29.1637H17.0837C16.6234 29.1637 16.2504 29.5368 16.2504 29.997C16.2504 30.4573 16.6234 30.8304 17.0837 30.8304H24.5837Z" fill="#FC5C2C"/>
</svg>
