<svg width="339" height="52" viewBox="0 0 339 52" fill="none" xmlns="http://www.w3.org/2000/svg">
<path d="M1 16.5H337" stroke="#ECECEC" stroke-width="2" stroke-linecap="round"/>
<path fill-rule="evenodd" clip-rule="evenodd" d="M1 16.5H337H1Z" fill="#FC5C2C"/>
<path d="M1 16.5H337" stroke="#FC5C2C" stroke-width="2" stroke-linecap="round"/>
<circle cx="21.0657" cy="16.5" r="6" fill="#FC5C2C" stroke="#FC5C2C"/>
<circle cx="317.5" cy="15.5" r="15" fill="#FC5C2C" stroke="#FC5C2C"/>
<path d="M315.655 19.2103L312.314 16.0759L311.2 17.1207L315.655 21.2998L325.2 12.3446L324.086 11.2998L315.655 19.2103Z" fill="white"/>
<circle cx="169.5" cy="16.5" r="6.5" fill="#FC5C2C"/>
<path opacity="0.7" d="M3.212 48H2.218V37.976H3.212L6.866 46.81L10.52 37.976H11.528V48H10.534V43.24C10.534 41.49 10.562 40.72 10.618 40.034L7.356 48H6.39L3.128 40.076C3.184 40.454 3.212 41.56 3.212 43.086V48ZM15.8981 48.168C14.4561 48.168 13.6021 47.356 13.6021 46.166C13.6021 44.92 14.5541 44.136 16.1361 44.01L18.3761 43.828V43.604C18.3761 42.274 17.5781 41.854 16.5841 41.854C15.4081 41.854 14.7081 42.386 14.7081 43.296H13.8261C13.8261 41.924 14.9461 41.042 16.6121 41.042C18.1801 41.042 19.3281 41.826 19.3281 43.618V48H18.5161L18.3901 46.81C17.9701 47.664 17.0461 48.168 15.8981 48.168ZM16.1221 47.384C17.5501 47.384 18.3761 46.39 18.3761 44.92V44.556L16.3741 44.71C15.1001 44.822 14.5821 45.382 14.5821 46.138C14.5821 46.964 15.1981 47.384 16.1221 47.384ZM22.4746 48H21.5086V37.794H22.4746V44.724L25.8346 41.224H27.0526L24.4486 43.926L27.0666 48H25.9466L23.7906 44.612L22.4746 45.97V48ZM28.8965 39.362C28.5045 39.362 28.1825 39.04 28.1825 38.648C28.1825 38.256 28.5045 37.92 28.8965 37.92C29.2885 37.92 29.6245 38.256 29.6245 38.648C29.6245 39.04 29.2885 39.362 28.8965 39.362ZM28.4205 48V41.224H29.3865V48H28.4205ZM32.567 48H31.601V41.224H32.441L32.581 42.4C33.029 41.532 33.925 41.042 34.905 41.042C36.767 41.042 37.537 42.148 37.537 43.856V48H36.571V44.066C36.571 42.484 35.857 41.924 34.737 41.924C33.351 41.924 32.567 42.932 32.567 44.458V48ZM39.2003 44.416C39.2003 42.568 40.3903 41.042 42.3783 41.042C43.5543 41.042 44.4503 41.588 44.8843 42.582L44.9823 41.224H45.8223V47.79C45.8223 49.806 44.5343 51.122 42.5463 51.122C40.8103 51.122 39.5923 50.142 39.3263 48.504H40.2923C40.5023 49.596 41.3423 50.24 42.5603 50.24C43.9463 50.24 44.8703 49.302 44.8703 47.888V46.278C44.4083 47.23 43.4703 47.79 42.3083 47.79C40.3763 47.79 39.2003 46.264 39.2003 44.416ZM40.1663 44.402C40.1663 45.788 41.0203 46.922 42.4483 46.922C43.9183 46.922 44.7863 45.858 44.7863 44.402C44.7863 42.96 43.9463 41.896 42.4623 41.896C41.0063 41.896 40.1663 43.03 40.1663 44.402Z" fill="#FC5C2C"/>
<path d="M149.04 44.318H146.226V48H145.218V37.976H149.04C150.972 37.976 152.19 39.236 152.19 41.126C152.19 42.946 150.958 44.318 149.04 44.318ZM148.9 38.886H146.226V43.408H148.844C150.3 43.408 151.14 42.484 151.14 41.112C151.14 39.726 150.286 38.886 148.9 38.886ZM155.48 48.168C154.038 48.168 153.184 47.356 153.184 46.166C153.184 44.92 154.136 44.136 155.718 44.01L157.958 43.828V43.604C157.958 42.274 157.16 41.854 156.166 41.854C154.99 41.854 154.29 42.386 154.29 43.296H153.408C153.408 41.924 154.528 41.042 156.194 41.042C157.762 41.042 158.91 41.826 158.91 43.618V48H158.098L157.972 46.81C157.552 47.664 156.628 48.168 155.48 48.168ZM155.704 47.384C157.132 47.384 157.958 46.39 157.958 44.92V44.556L155.956 44.71C154.682 44.822 154.164 45.382 154.164 46.138C154.164 46.964 154.78 47.384 155.704 47.384ZM160.573 44.626C160.573 42.498 161.875 41.042 163.849 41.042C165.417 41.042 166.565 41.952 166.831 43.352H165.865C165.613 42.414 164.801 41.896 163.863 41.896C162.491 41.896 161.525 42.946 161.525 44.612C161.525 46.222 162.421 47.3 163.793 47.3C164.801 47.3 165.613 46.74 165.879 45.872H166.859C166.537 47.258 165.333 48.168 163.793 48.168C161.875 48.168 160.573 46.754 160.573 44.626ZM169.53 48H168.564V37.794H169.53V44.724L172.89 41.224H174.108L171.504 43.926L174.122 48H173.002L170.846 44.612L169.53 45.97V48ZM175.952 39.362C175.56 39.362 175.238 39.04 175.238 38.648C175.238 38.256 175.56 37.92 175.952 37.92C176.344 37.92 176.68 38.256 176.68 38.648C176.68 39.04 176.344 39.362 175.952 39.362ZM175.476 48V41.224H176.442V48H175.476ZM179.622 48H178.656V41.224H179.496L179.636 42.4C180.084 41.532 180.98 41.042 181.96 41.042C183.822 41.042 184.592 42.148 184.592 43.856V48H183.626V44.066C183.626 42.484 182.912 41.924 181.792 41.924C180.406 41.924 179.622 42.932 179.622 44.458V48ZM186.256 44.416C186.256 42.568 187.446 41.042 189.434 41.042C190.61 41.042 191.506 41.588 191.94 42.582L192.038 41.224H192.878V47.79C192.878 49.806 191.59 51.122 189.602 51.122C187.866 51.122 186.648 50.142 186.382 48.504H187.348C187.558 49.596 188.398 50.24 189.616 50.24C191.002 50.24 191.926 49.302 191.926 47.888V46.278C191.464 47.23 190.526 47.79 189.364 47.79C187.432 47.79 186.256 46.264 186.256 44.416ZM187.222 44.402C187.222 45.788 188.076 46.922 189.504 46.922C190.974 46.922 191.842 45.858 191.842 44.402C191.842 42.96 191.002 41.896 189.518 41.896C188.062 41.896 187.222 43.03 187.222 44.402Z" fill="#FC5C2C"/>
<path d="M301.048 48H299.676V37.878H303.498C305.668 37.878 306.956 39.026 306.956 40.916C306.956 42.316 306.256 43.324 304.996 43.73L307.054 48H305.528L303.638 43.996H301.048V48ZM301.048 39.11V42.778H303.512C304.786 42.778 305.514 42.092 305.514 40.93C305.514 39.754 304.758 39.11 303.498 39.11H301.048ZM311.274 48.168C309.258 48.168 307.872 46.712 307.872 44.584C307.872 42.442 309.23 40.958 311.218 40.958C313.164 40.958 314.438 42.302 314.438 44.332V44.822L309.146 44.836C309.244 46.278 310 47.076 311.302 47.076C312.324 47.076 312.996 46.656 313.22 45.872H314.452C314.116 47.342 312.968 48.168 311.274 48.168ZM311.218 42.064C310.07 42.064 309.342 42.75 309.174 43.954H313.122C313.122 42.82 312.38 42.064 311.218 42.064ZM318.041 48.168C316.571 48.168 315.703 47.342 315.703 46.096C315.703 44.836 316.641 44.052 318.251 43.926L320.407 43.758V43.562C320.407 42.414 319.722 42.008 318.797 42.008C317.691 42.008 317.061 42.498 317.061 43.324H315.913C315.913 41.896 317.089 40.958 318.853 40.958C320.547 40.958 321.696 41.854 321.696 43.702V48H320.575L320.436 46.894C320.085 47.678 319.147 48.168 318.041 48.168ZM318.419 47.146C319.665 47.146 320.421 46.334 320.421 45.046V44.682L318.671 44.822C317.509 44.934 317.033 45.382 317.033 46.054C317.033 46.782 317.565 47.146 318.419 47.146ZM326.462 48.168C324.474 48.168 323.27 46.684 323.27 44.598C323.27 42.498 324.488 40.958 326.518 40.958C327.568 40.958 328.45 41.42 328.912 42.26V37.696H330.214V48H329.038L328.926 46.754C328.478 47.692 327.554 48.168 326.462 48.168ZM326.728 46.978C328.072 46.978 328.898 45.984 328.898 44.556C328.898 43.156 328.072 42.148 326.728 42.148C325.384 42.148 324.6 43.156 324.6 44.556C324.6 45.97 325.384 46.978 326.728 46.978ZM331.655 51.066V49.988H332.537C333.167 49.988 333.671 49.89 333.993 49.022L334.231 48.364L331.473 41.154H332.859L334.847 46.67L336.877 41.154H338.235L335.001 49.54C334.539 50.716 333.853 51.206 332.803 51.206C332.369 51.206 332.005 51.15 331.655 51.066Z" fill="#FC5C2C"/>
</svg>
