<svg width="17" height="17" viewBox="0 0 17 17" fill="none" xmlns="http://www.w3.org/2000/svg">
<path d="M13.0821 15.937C12.9703 15.9375 12.8612 15.9026 12.7703 15.8374L8.50007 12.7416L4.22982 15.8374C4.13858 15.9036 4.02867 15.939 3.91597 15.9386C3.80327 15.9382 3.69362 15.902 3.60287 15.8351C3.51213 15.7683 3.44498 15.6744 3.41115 15.5668C3.37732 15.4593 3.37856 15.3439 3.41468 15.2371L5.08015 10.3041L0.763741 7.34406C0.670244 7.28002 0.599679 7.18775 0.562354 7.08075C0.52503 6.97374 0.522902 6.8576 0.556282 6.7493C0.589663 6.641 0.656802 6.54621 0.74789 6.47879C0.838978 6.41136 0.949241 6.37483 1.06257 6.37453H6.38769L7.99472 1.42892C8.02934 1.32215 8.09689 1.22909 8.18767 1.16308C8.27846 1.09708 8.38782 1.06152 8.50007 1.06152C8.61232 1.06152 8.72168 1.09708 8.81247 1.16308C8.90325 1.22909 8.9708 1.32215 9.00542 1.42892L10.6125 6.37619H15.9376C16.051 6.37614 16.1615 6.41241 16.2529 6.47971C16.3443 6.54701 16.4117 6.64179 16.4453 6.75017C16.4789 6.85855 16.4769 6.97485 16.4396 7.08201C16.4023 7.18918 16.3317 7.2816 16.2381 7.34572L11.92 10.3041L13.5845 15.2358C13.6114 15.3156 13.619 15.4007 13.6066 15.4841C13.5942 15.5675 13.5621 15.6467 13.513 15.7152C13.4639 15.7837 13.3993 15.8395 13.3243 15.8781C13.2494 15.9167 13.1664 15.9369 13.0821 15.937Z" fill="#FC5C2C"/>
</svg>
