<svg width="35" height="35" viewBox="0 0 35 35" fill="none" xmlns="http://www.w3.org/2000/svg">
<rect width="35" height="35" rx="10" fill="#FFF1ED"/>
<path d="M17.5 8.11133C15.6957 8.11343 13.9659 8.85154 12.69 10.1637C11.4142 11.4759 10.6965 13.255 10.6945 15.1107C10.6945 17.6859 12.7184 20.5794 14.6759 23.3775C15.6216 24.7294 16.5996 26.1276 17.3063 27.4385C17.3255 27.474 17.3535 27.5037 17.3876 27.5243C17.4217 27.5449 17.4605 27.5558 17.5 27.5558C17.5395 27.5558 17.5784 27.5449 17.6124 27.5243C17.6465 27.5037 17.6746 27.474 17.6937 27.4385C18.4004 26.1276 19.3784 24.7294 20.3241 23.3775C22.2816 20.5794 24.3056 17.6859 24.3056 15.1107C24.3035 13.255 23.5859 11.4759 22.31 10.1637C21.0342 8.85154 19.3043 8.11343 17.5 8.11133ZM17.5 18.1302C16.9193 18.1302 16.3517 17.9531 15.8689 17.6214C15.3861 17.2896 15.0098 16.818 14.7876 16.2662C14.5654 15.7145 14.5072 15.1074 14.6205 14.5216C14.7338 13.9359 15.0134 13.3979 15.424 12.9756C15.8346 12.5533 16.3577 12.2657 16.9272 12.1492C17.4968 12.0327 18.0871 12.0925 18.6235 12.321C19.16 12.5496 19.6185 12.9366 19.9411 13.4331C20.2637 13.9297 20.4359 14.5135 20.4359 15.1107C20.4351 15.9113 20.1255 16.6788 19.5751 17.2449C19.0247 17.8109 18.2784 18.1294 17.5 18.1302Z" fill="#FC5C2C"/>
</svg>
