<svg width="24" height="24" viewBox="0 0 24 24" fill="none" xmlns="http://www.w3.org/2000/svg">
<path d="M12.085 2.5C16.0762 2.50002 19.3337 5.75786 19.334 9.74902V10.7119L19.6592 10.833C20.8333 11.2734 21.6666 12.3875 21.6484 13.7129V13.7197C21.6484 15.2702 20.4789 16.5687 18.9824 16.7695L18.665 16.8125L18.5713 17.1182C17.9517 19.1317 16.1317 20.6203 13.9482 20.7363L13.5381 20.7578L13.4795 21.165C13.4522 21.3558 13.2888 21.4999 13.083 21.5H11.0654C10.8322 21.4998 10.6533 21.3202 10.6533 21.0869V20.0469C10.6533 19.8136 10.8322 19.634 11.0654 19.6338H13.083C13.2826 19.6339 13.4471 19.7774 13.4854 19.959L13.5762 20.3887L14.0137 20.3545C15.8127 20.2125 17.3326 19.0981 18.0215 17.5068L18.3242 16.8076H17.2871C17.2236 16.8076 17.171 16.7558 17.1709 16.6924V10.7471C17.171 10.6836 17.2236 10.6318 17.2871 10.6318H18.3809V9.74902C18.3806 6.26715 15.5669 3.45314 12.085 3.45312C8.60302 3.45312 5.7893 6.26714 5.78906 9.74902V10.6318H6.88281C6.94628 10.6318 6.99887 10.6836 6.99902 10.7471V16.6924C6.99889 16.7558 6.94629 16.8076 6.88281 16.8076H5.58789C3.88961 16.8075 2.5 15.418 2.5 13.7197C2.50001 12.4082 3.3389 11.2725 4.51074 10.833L4.83594 10.7119V9.74902C4.83618 5.75785 8.09374 2.5 12.085 2.5Z" fill="white" stroke="white"/>
<path d="M10.896 10.1528C10.896 9.81312 11.0446 9.47342 11.3206 9.23987C11.5966 9.00632 11.9363 8.9214 12.2972 8.98509C12.7643 9.07002 13.1677 9.45218 13.2314 9.91928C13.3588 10.5987 12.9129 11.1082 12.4246 11.2569C11.7452 11.4692 11.2994 12.1061 11.2994 12.8492V13.5074C11.2994 13.932 11.6391 14.2717 12.0637 14.2717C12.4883 14.2717 12.828 13.932 12.828 13.5074V12.8492C12.828 12.7855 12.8705 12.7218 12.8917 12.7218C14.1868 12.2972 14.9724 11.0021 14.7389 9.64327C14.5478 8.53923 13.656 7.64751 12.552 7.45643C11.7452 7.30781 10.9384 7.52013 10.3227 8.05091C9.707 8.56046 9.34607 9.3248 9.34607 10.1316C9.34607 10.5562 9.68577 10.8959 10.1104 10.8959C10.5563 10.9172 10.896 10.5775 10.896 10.1528Z" fill="white"/>
<path d="M12.085 16.5862C12.5423 16.5862 12.913 16.2155 12.913 15.7582C12.913 15.3009 12.5423 14.9302 12.085 14.9302C11.6277 14.9302 11.257 15.3009 11.257 15.7582C11.257 16.2155 11.6277 16.5862 12.085 16.5862Z" fill="white"/>
</svg>
