<svg width="24" height="24" viewBox="0 0 24 24" fill="none" xmlns="http://www.w3.org/2000/svg">
<path d="M19.8344 10.3652V9.74947C19.8344 5.48195 16.3524 2 12.0849 2C7.81741 2 4.33546 5.48195 4.33546 9.74947V10.3652C2.97665 10.8747 2 12.1911 2 13.7197C2 15.6943 3.61359 17.3079 5.58811 17.3079H6.88323C7.22293 17.3079 7.49894 17.0318 7.49894 16.6921V10.7473C7.49894 10.4076 7.22293 10.1316 6.88323 10.1316H6.28875V9.74947C6.28875 6.54352 8.87898 3.95329 12.0849 3.95329C15.2909 3.95329 17.8811 6.54352 17.8811 9.74947V10.1316H17.2866C16.9469 10.1316 16.6709 10.4076 16.6709 10.7473V16.6921C16.6709 17.0318 16.9469 17.3079 17.2866 17.3079H17.5626C16.9469 18.7304 15.5881 19.7282 13.9745 19.8556C13.8896 19.4522 13.5287 19.1338 13.0828 19.1338H11.0658C10.5563 19.1338 10.1529 19.5372 10.1529 20.0467V21.087C10.1529 21.5966 10.5563 22 11.0658 22H13.0828C13.5287 22 13.9108 21.6815 13.9745 21.2357C16.3737 21.1083 18.3694 19.4735 19.0488 17.2654C20.7898 17.0318 22.1486 15.5244 22.1486 13.7197C22.1699 12.1699 21.1932 10.8747 19.8344 10.3652Z" fill="#D1D5DB"/>
<path d="M10.896 10.1528C10.896 9.81312 11.0446 9.47342 11.3206 9.23987C11.5966 9.00632 11.9363 8.9214 12.2972 8.98509C12.7643 9.07002 13.1677 9.45218 13.2314 9.91928C13.3588 10.5987 12.9129 11.1082 12.4246 11.2569C11.7452 11.4692 11.2994 12.1061 11.2994 12.8492V13.5074C11.2994 13.932 11.6391 14.2717 12.0637 14.2717C12.4883 14.2717 12.828 13.932 12.828 13.5074V12.8492C12.828 12.7855 12.8705 12.7218 12.8917 12.7218C14.1868 12.2972 14.9724 11.0021 14.7389 9.64327C14.5478 8.53923 13.656 7.64751 12.552 7.45643C11.7452 7.30781 10.9384 7.52013 10.3227 8.05091C9.707 8.56046 9.34607 9.3248 9.34607 10.1316C9.34607 10.5562 9.68577 10.8959 10.1104 10.8959C10.5563 10.9172 10.896 10.5775 10.896 10.1528Z" fill="#D1D5DB"/>
<path d="M12.085 16.5862C12.5423 16.5862 12.913 16.2155 12.913 15.7582C12.913 15.3009 12.5423 14.9302 12.085 14.9302C11.6277 14.9302 11.257 15.3009 11.257 15.7582C11.257 16.2155 11.6277 16.5862 12.085 16.5862Z" fill="#D1D5DB"/>
</svg>
