<svg width="24" height="24" viewBox="0 0 24 24" fill="none" xmlns="http://www.w3.org/2000/svg">
<path d="M8.66667 14.0833C8.66667 13.0708 7.84586 12.25 6.83333 12.25C5.82081 12.25 5 13.0708 5 14.0833V15.9167C5 16.9292 5.82081 17.75 6.83333 17.75C7.84586 17.75 8.66667 16.9292 8.66667 15.9167V14.0833Z" stroke="#FC5C2C" stroke-width="1.5" stroke-linecap="round" stroke-linejoin="round"/>
<path d="M19.6667 14.0833C19.6667 13.0708 18.8459 12.25 17.8333 12.25C16.8208 12.25 16 13.0708 16 14.0833V15.9167C16 16.9292 16.8208 17.75 17.8333 17.75C18.8459 17.75 19.6667 16.9292 19.6667 15.9167V14.0833Z" stroke="#FC5C2C" stroke-width="1.5" stroke-linecap="round" stroke-linejoin="round"/>
<path d="M5 14.0833V11.3333C5 9.38841 5.77262 7.52315 7.14788 6.14788C8.52315 4.77262 10.3884 4 12.3333 4C14.2783 4 16.1435 4.77262 17.5188 6.14788C18.8941 7.52315 19.6667 9.38841 19.6667 11.3333V14.0833M17.8333 17.75C17.8333 18.4793 17.2539 19.1788 16.2224 19.6945C15.191 20.2103 13.792 20.5 12.3333 20.5" stroke="#FC5C2C" stroke-width="1.5" stroke-linecap="round" stroke-linejoin="round"/>
</svg>
