<svg width="24" height="24" viewBox="0 0 24 24" fill="none" xmlns="http://www.w3.org/2000/svg">
<path d="M12.0902 3.66699C14.3084 3.66788 16.3889 4.52634 17.9545 6.08594C19.5467 7.67244 20.4169 9.74468 20.4164 11.9229C20.4154 14.1203 19.5477 16.1902 17.9662 17.7549C16.3883 19.3161 14.3033 20.1738 12.0912 20.1738H12.0873C10.7885 20.1732 9.50039 19.8664 8.34705 19.2852L8.13318 19.1768L7.8988 19.2305L4.00134 20.1162L4.84607 16.2773L4.89978 16.0342L4.78162 15.8164C4.11453 14.5847 3.76722 13.2424 3.76697 11.9209V11.917L3.77673 11.5068C3.87954 9.4637 4.73526 7.55128 6.21619 6.08594C7.79359 4.52508 9.87783 3.66717 12.0902 3.66699ZM12.0902 3.73828C7.5474 3.73851 3.84119 7.40433 3.83826 11.9189V11.9199C3.83833 13.324 4.23358 14.7357 4.97009 16.0059L4.97595 16.0176L4.32166 18.9951L4.09509 20.0215L5.12048 19.7891L8.14783 19.0996L8.16052 19.1064C9.36006 19.7577 10.7173 20.1019 12.0873 20.1025H12.0912C16.6347 20.1024 20.3421 16.4399 20.3441 11.9238V11.9229C20.3447 9.75561 19.4735 7.70005 17.9047 6.13672C16.3534 4.5914 14.2863 3.73925 12.0912 3.73828H12.0902Z" fill="#18005A" stroke="#9CA3AF" stroke-width="1.33333"/>
<path d="M9.51428 8.6543C9.59984 8.84737 9.73088 9.16792 9.85315 9.4707C9.93902 9.68336 10.0347 9.91578 10.0944 10.0566C10.0876 10.0704 10.0832 10.0806 10.0787 10.0889C10.0702 10.1048 10.0633 10.1152 10.0475 10.1338C9.96367 10.2313 9.85585 10.3408 9.76331 10.4326C9.72955 10.4661 9.56329 10.6182 9.47913 10.8438C9.37126 11.1333 9.42726 11.4211 9.56702 11.6602C9.69644 11.8814 10.1631 12.6487 10.8551 13.2637C11.7261 14.0377 12.5001 14.3093 12.6471 14.3828L12.6481 14.3838C12.7949 14.457 13.0186 14.5445 13.2809 14.5127C13.498 14.4862 13.6633 14.3888 13.7848 14.2822L13.8922 14.1748C13.9775 14.0776 14.2444 13.7663 14.442 13.5127C14.4604 13.5212 14.4801 13.5304 14.5006 13.54C14.6204 13.5965 14.7673 13.6671 14.9166 13.7402C15.2152 13.8863 15.5162 14.0372 15.6198 14.0889C15.6319 14.0949 15.6441 14.1007 15.6559 14.1064C15.64 14.2117 15.6132 14.3417 15.5631 14.4814C15.5605 14.4866 15.5412 14.5244 15.4781 14.5889C15.4119 14.6566 15.3211 14.7305 15.2135 14.7998C15.1067 14.8687 14.9959 14.9252 14.9 14.9648L14.7428 15.0166C14.5046 15.0382 14.4249 15.0666 14.1676 15.0322C13.8919 14.9954 13.426 14.8798 12.5787 14.5469C11.1747 13.995 10.1506 12.7704 9.66077 12.1055L9.3551 11.6729C9.31001 11.6127 9.12801 11.3715 8.95764 11.0371C8.7823 10.693 8.64905 10.3068 8.64905 9.95312C8.64911 9.22361 9.00736 8.89633 9.19299 8.69434C9.21525 8.67021 9.23337 8.66197 9.2428 8.6582C9.24838 8.65599 9.25298 8.65476 9.25549 8.6543H9.51428Z" fill="#18005A" stroke="#9CA3AF" stroke-width="1.33333"/>
</svg>
