<svg width="20" height="20" viewBox="0 0 20 20" fill="none" xmlns="http://www.w3.org/2000/svg">
<path d="M1 7V17C1 18.1046 1.89543 19 3 19H17C18.1046 19 19 18.1046 19 17V7M1 7C1 5.89543 1.89543 5 3 5H17C18.1046 5 19 5.89543 19 7M1 7V10L3.67545 10.8918C5.08923 11.3631 6.54252 11.672 8.00811 11.8187C8.09971 10.7991 8.95653 10 10 10M19 7V10L16.3246 10.8918C14.9108 11.3631 13.4575 11.672 11.9919 11.8187C11.9003 10.7991 11.0435 10 10 10M10 10C11.1046 10 12 10.8954 12 12C12 13.1046 11.1046 14 10 14C8.89543 14 8 13.1046 8 12C8 10.8954 8.89543 10 10 10ZM15 5H5V3C5 1.89543 5.89543 1 7 1H13C14.1046 1 15 1.89543 15 3V5Z" stroke="white" stroke-width="1.5" stroke-linejoin="round"/>
</svg>
