<svg id="SvgjsSvg1023" width="288" height="288" xmlns="http://www.w3.org/2000/svg" version="1.1" xmlns:xlink="http://www.w3.org/1999/xlink" xmlns:svgjs="http://svgjs.com/svgjs"><defs id="SvgjsDefs1024"></defs><g id="SvgjsG1025"><svg xmlns="http://www.w3.org/2000/svg" viewBox="0 0 24 24" width="288" height="288"><path fill="#ffffff" d="M0 0 C3.56185687 2.61202837 4.81921238 4.15632446 5.75 8.5 C5.87375 10.2325 5.87375 10.2325 6 12 C6.3403125 13.3921875 6.3403125 13.3921875 6.6875 14.8125 C6.790625 15.534375 6.89375 16.25625 7 17 C6.34 17.66 5.68 18.32 5 19 C3.68 19 2.36 19 1 19 C0.67 19.99 0.34 20.98 0 22 C-1.98 22 -3.96 22 -6 22 C-6.33 21.01 -6.66 20.02 -7 19 C-8.65 18.67 -10.3 18.34 -12 18 C-12.38218767 16.34385343 -12.71395102 14.67542976 -13 13 C-12.67 12.67 -12.34 12.34 -12 12 C-11.70743606 10.54587031 -11.44054713 9.08652453 -11.1875 7.625 C-10.54721887 4.68531512 -10.21967381 3.25890127 -8.25 0.9375 C-5.18088602 -0.34129749 -3.29801106 -0.53845078 0 0 Z M-6.625 3 C-8.39157733 5.56956703 -8.91723753 8.03773172 -9.5703125 11.0625 C-10 13 -10 13 -11 16 C-8.27457733 17.36271133 -6.03912726 17.16923601 -3 17.1875 C-1.9275 17.20167969 -0.855 17.21585938 0.25 17.23046875 C3.14453096 17.28585786 3.14453096 17.28585786 5 15 C4.57476184 13.39253944 4.13429874 11.78910164 3.6875 10.1875 C3.32205078 8.84751953 3.32205078 8.84751953 2.94921875 7.48046875 C1.95588493 4.88471987 1.25294852 3.61077792 -1 2 C-4.75023482 1.65060172 -4.75023482 1.65060172 -6.625 3 Z " transform="translate(15 1)" class="color101216 svgShape"></path><path fill="#ffffff" d="M0 0 C0.66 0 1.32 0 2 0 C2 1.98 2 3.96 2 6 C1.34 6 0.68 6 0 6 C0 4.02 0 2.04 0 0 Z " transform="translate(11 5)" class="color101216 svgShape"></path></svg></g></svg>