<svg width="21" height="20" viewBox="0 0 21 20" fill="none" xmlns="http://www.w3.org/2000/svg">
<path d="M17.8344 8.36518V7.74947C17.8344 3.48195 14.3524 0 10.0849 0C5.81741 0 2.33546 3.48195 2.33546 7.74947V8.36518C0.976646 8.87473 0 10.1911 0 11.7197C0 13.6943 1.61359 15.3079 3.58811 15.3079H4.88323C5.22293 15.3079 5.49894 15.0318 5.49894 14.6921V8.74735C5.49894 8.40764 5.22293 8.13163 4.88323 8.13163H4.28875V7.74947C4.28875 4.54352 6.87898 1.95329 10.0849 1.95329C13.2909 1.95329 15.8811 4.54352 15.8811 7.74947V8.13163H15.2866C14.9469 8.13163 14.6709 8.40764 14.6709 8.74735V14.6921C14.6709 15.0318 14.9469 15.3079 15.2866 15.3079H15.5626C14.9469 16.7304 13.5881 17.7282 11.9745 17.8556C11.8896 17.4522 11.5287 17.1338 11.0828 17.1338H9.06582C8.55626 17.1338 8.15287 17.5372 8.15287 18.0467V19.087C8.15287 19.5966 8.55626 20 9.06582 20H11.0828C11.5287 20 11.9108 19.6815 11.9745 19.2357C14.3737 19.1083 16.3694 17.4735 17.0488 15.2654C18.7898 15.0318 20.1486 13.5244 20.1486 11.7197C20.1699 10.1699 19.1932 8.87473 17.8344 8.36518Z" fill="#D1D5DB"/>
<path d="M8.89596 8.15282C8.89596 7.81312 9.04458 7.47342 9.32059 7.23987C9.5966 7.00632 9.9363 6.9214 10.2972 6.98509C10.7643 7.07002 11.1677 7.45218 11.2314 7.91928C11.3588 8.59868 10.9129 9.10824 10.4246 9.25686C9.74522 9.46917 9.29936 10.1061 9.29936 10.8492V11.5074C9.29936 11.932 9.63906 12.2717 10.0637 12.2717C10.4883 12.2717 10.828 11.932 10.828 11.5074V10.8492C10.828 10.7855 10.8705 10.7218 10.8917 10.7218C12.1868 10.2972 12.9724 9.00208 12.7389 7.64327C12.5478 6.53923 11.656 5.64751 10.552 5.45643C9.74522 5.30781 8.93843 5.52013 8.32272 6.05091C7.707 6.56046 7.34607 7.3248 7.34607 8.13159C7.34607 8.55622 7.68577 8.89592 8.1104 8.89592C8.55626 8.91715 8.89596 8.57745 8.89596 8.15282Z" fill="#D1D5DB"/>
<path d="M10.085 14.5857C10.5423 14.5857 10.913 14.215 10.913 13.7577C10.913 13.3004 10.5423 12.9297 10.085 12.9297C9.62768 12.9297 9.25696 13.3004 9.25696 13.7577C9.25696 14.215 9.62768 14.5857 10.085 14.5857Z" fill="#D1D5DB"/>
</svg>
